<svg width="200" height="200" viewBox="0 0 200 200" fill="none" xmlns="http://www.w3.org/2000/svg">
<circle cx="100" cy="100" r="74.5" stroke="#73AFC8" stroke-opacity="0.8"/>
<circle cx="100" cy="100" r="49.5" stroke="#73AFC8" stroke-opacity="0.8"/>
<circle cx="100" cy="100" r="99.5" stroke="#73AFC8" stroke-opacity="0.8"/>
<circle cx="100" cy="100" r="25" fill="#A77B5A"/>
<path d="M107.002 94.9404C106.944 94.8818 106.879 94.8281 106.807 94.7804L106.734 94.7651C106.695 94.7484 106.665 94.721 106.645 94.6879C106.53 94.6339 106.411 94.599 106.289 94.5816C106.183 94.567 106.109 94.4693 106.125 94.3632C106.139 94.2573 106.237 94.1833 106.343 94.1979C106.463 94.2157 106.584 94.2463 106.7 94.2918C106.719 94.2071 106.729 94.1207 106.729 94.0336C106.729 93.843 106.684 93.6506 106.589 93.4696C106.48 93.2627 106.321 93.1012 106.134 92.991C105.97 92.8943 105.785 92.8367 105.595 92.8232C105.582 92.9963 105.54 93.1688 105.469 93.3359C105.426 93.434 105.312 93.4792 105.214 93.4369C105.116 93.3949 105.07 93.2812 105.113 93.183C105.182 93.0219 105.214 92.8562 105.215 92.6919L105.212 92.6219C105.199 92.3943 105.124 92.1745 104.995 91.9871C104.867 91.8001 104.687 91.6468 104.463 91.5497C104.302 91.4811 104.136 91.4487 103.972 91.4487C103.658 91.4487 103.354 91.5697 103.124 91.783C103.167 91.9292 103.192 92.0831 103.192 92.2432C103.192 92.3499 103.104 92.4366 102.997 92.4366C102.891 92.4366 102.804 92.3499 102.804 92.2432C102.804 92.0863 102.775 91.9377 102.722 91.7994H102.723C102.633 91.5665 102.475 91.3659 102.273 91.2244C102.071 91.0829 101.827 91 101.561 91C101.33 91 101.115 91.063 100.93 91.1718C100.782 91.2592 100.655 91.3773 100.555 91.516C100.75 91.7844 100.866 92.1162 100.866 92.474C100.866 92.5806 100.779 92.6671 100.672 92.6671C100.565 92.6671 100.478 92.5806 100.478 92.474C100.478 92.1597 100.363 91.8737 100.17 91.655C99.9422 91.3944 99.609 91.2312 99.2356 91.2312C98.9764 91.2312 98.7378 91.3097 98.5382 91.4449C98.3395 91.58 98.1812 91.7713 98.0877 91.9961C98.0273 92.1429 97.9927 92.3047 97.9927 92.474C97.9927 92.5806 97.9063 92.6671 97.7993 92.6671C97.6922 92.6671 97.6059 92.5806 97.6059 92.474C97.6059 92.3168 97.6286 92.1653 97.6699 92.0209C97.5241 91.9619 97.3662 91.9292 97.2041 91.9292C97.112 91.9292 97.0195 91.9399 96.9256 91.9609C96.6497 92.0245 96.4189 92.1732 96.25 92.3744C96.1283 92.5195 96.0416 92.692 95.9964 92.8772C96.3965 92.8843 96.7961 93.039 97.1049 93.3413C97.181 93.4163 97.1824 93.5387 97.1077 93.6147C97.0327 93.6915 96.9103 93.6923 96.8339 93.6179C96.5914 93.3815 96.2788 93.263 95.9644 93.2627C95.9083 93.2627 95.8521 93.2666 95.7959 93.2737H95.7952H95.7948C95.5313 93.3103 95.2774 93.4305 95.0758 93.636C94.8389 93.8778 94.7216 94.1901 94.7213 94.5051C94.7213 94.6847 94.7604 94.8657 94.8386 95.0321C94.8994 95.1633 94.9847 95.2857 95.095 95.3931V95.3934C95.2195 95.5157 95.3631 95.6061 95.5164 95.6651C95.6156 95.7039 95.6658 95.8159 95.6266 95.9154C95.5879 96.0157 95.4762 96.0655 95.3763 96.0264C95.1761 95.9488 94.987 95.8301 94.8233 95.6697C94.7519 95.5993 94.6882 95.5243 94.6317 95.4446C94.4855 95.6541 94.4062 95.9047 94.4062 96.1601C94.4062 96.3578 94.4536 96.5573 94.5535 96.7447C94.6658 96.9545 94.8284 97.1181 95.0197 97.2297C95.1708 97.3183 95.3397 97.3741 95.514 97.3937L95.5136 97.3819C95.5136 97.2795 95.5232 97.1793 95.5406 97.0818C95.5606 96.9766 95.6619 96.9079 95.7665 96.9268C95.8717 96.9463 95.9411 97.0473 95.9222 97.1525C95.9083 97.2268 95.9009 97.304 95.9009 97.3819L95.9041 97.4719L95.9144 97.5626V97.5636L95.9147 97.5654C96.0036 98.1728 96.5285 98.6268 97.143 98.6268L97.2322 98.6233H97.2326C97.505 98.6037 97.7496 98.4985 97.9438 98.3346C98.08 98.2197 98.1916 98.0757 98.2681 97.9135C98.3132 97.8164 98.4295 97.7752 98.5259 97.821C98.6226 97.8666 98.6639 97.9818 98.6184 98.0785C98.5355 98.2531 98.4224 98.4106 98.2866 98.5447C98.3627 98.7787 98.5056 98.9796 98.6923 99.1289C98.9057 99.3 99.1749 99.401 99.4658 99.401L99.5554 99.3974H99.5558C99.74 99.3843 99.9103 99.3313 100.061 99.2488C100.038 99.1375 100.024 99.0237 100.024 98.9085C100.024 98.6709 100.077 98.4288 100.187 98.2012C100.234 98.1048 100.349 98.0646 100.445 98.1112C100.541 98.1571 100.582 98.273 100.536 98.3694C100.452 98.544 100.412 98.7275 100.412 98.9085C100.412 99.0351 100.432 99.1613 100.469 99.2811H100.47C100.569 99.5973 100.793 99.8736 101.115 100.029C101.29 100.113 101.473 100.152 101.654 100.152C101.941 100.152 102.221 100.052 102.444 99.8704L102.445 99.87C102.58 99.7587 102.693 99.6179 102.774 99.4497L102.775 99.4489C102.85 99.2918 102.89 99.1272 102.897 98.9629C102.902 98.8562 102.992 98.773 103.099 98.7779C103.206 98.7826 103.289 98.8729 103.284 98.9795C103.275 99.195 103.222 99.4126 103.123 99.6178V99.6175C103.043 99.7835 102.939 99.9297 102.816 100.055C103.044 100.382 103.424 100.589 103.834 100.589C103.91 100.589 103.988 100.582 104.066 100.567C104.365 100.51 104.617 100.352 104.796 100.135C104.975 99.9165 105.079 99.6395 105.079 99.3472L105.079 99.3209V99.3195C105.078 99.2537 105.071 99.1847 105.058 99.1153C105.027 98.9507 104.964 98.8013 104.878 98.6694C104.753 98.5592 104.614 98.4152 104.482 98.2551C104.343 98.0845 104.214 97.8977 104.127 97.7097C104.071 97.5838 104.03 97.4565 104.029 97.3224C104.029 97.263 104.037 97.2015 104.06 97.1425C104.082 97.0824 104.117 97.0255 104.165 96.9786C104.24 96.9035 104.362 96.9035 104.438 96.9786C104.514 97.0546 104.514 97.1777 104.438 97.2527L104.424 97.2759L104.416 97.3225C104.415 97.3712 104.436 97.4537 104.479 97.5486C104.523 97.6432 104.587 97.7495 104.663 97.8544C104.813 98.0646 105.008 98.2709 105.154 98.3967L105.174 98.4138L105.189 98.4355C105.308 98.614 105.396 98.8195 105.439 99.0439V99.0443L105.452 99.1403L105.51 99.1428C105.756 99.1424 106.003 99.0699 106.22 98.9173C106.393 98.7957 106.525 98.6396 106.613 98.4643C106.703 98.2886 106.749 98.0944 106.749 97.8989C106.749 97.7157 106.708 97.5319 106.626 97.3608C106.549 97.3854 106.472 97.4049 106.393 97.4185C106.288 97.4373 106.188 97.3658 106.169 97.2606C106.151 97.155 106.222 97.0554 106.328 97.0369C106.67 96.9779 106.984 96.778 107.178 96.4573C107.302 96.2557 107.359 96.0338 107.359 95.8144C107.359 95.4911 107.235 95.175 107.002 94.9406L107.002 94.9404ZM98.1304 93.4633C98.3153 93.2446 98.5607 93.0891 98.8245 92.9874C99.0895 92.8857 99.3732 92.837 99.6456 92.837C99.9106 92.8374 100.165 92.8822 100.381 92.9825C100.478 93.0265 100.52 93.1421 100.476 93.2392C100.431 93.336 100.316 93.3786 100.219 93.3338C100.069 93.2638 99.8647 93.2236 99.6456 93.2236C99.4202 93.2236 99.1798 93.2651 98.9639 93.3491C98.7481 93.432 98.5586 93.5557 98.4252 93.7129C98.3569 93.7947 98.2343 93.8053 98.1525 93.7357C98.071 93.6667 98.0607 93.5447 98.1304 93.4633ZM102.537 98.0412C102.312 98.0412 102.108 98.0156 101.921 97.9726C101.926 98.0259 101.93 98.0853 101.93 98.1483C101.93 98.2745 101.916 98.4188 101.877 98.5704C101.837 98.7215 101.77 98.8804 101.664 99.033C101.603 99.1212 101.482 99.1429 101.394 99.082C101.306 99.0212 101.285 98.901 101.345 98.8125C101.423 98.6997 101.472 98.5845 101.502 98.4711C101.532 98.3577 101.543 98.2474 101.543 98.1482C101.543 98.0113 101.522 97.8986 101.507 97.8342C101.413 97.7915 101.325 97.7435 101.244 97.6898C100.92 97.48 100.703 97.203 100.567 96.9395C100.475 96.7628 100.42 96.5921 100.39 96.4438C100.373 96.3592 100.364 96.2824 100.364 96.2126C100.364 96.1052 100.451 96.0185 100.558 96.0185C100.665 96.0185 100.752 96.1052 100.752 96.2126C100.752 96.2688 100.764 96.3631 100.794 96.4701C100.825 96.5775 100.874 96.6995 100.944 96.8221C101.085 97.0689 101.309 97.3161 101.656 97.4765C101.887 97.5839 102.175 97.6535 102.537 97.6535C102.644 97.6535 102.731 97.7403 102.731 97.8473C102.731 97.9545 102.644 98.0412 102.537 98.0412ZM103.9 96.6273C103.861 96.7262 103.748 96.7746 103.648 96.7351C103.549 96.6953 103.501 96.5833 103.541 96.484V96.4837L103.542 96.4808L103.547 96.4638L103.567 96.3941C103.582 96.3329 103.597 96.2465 103.597 96.1516L103.596 96.138C103.33 96.2284 103.084 96.2689 102.856 96.2689C102.513 96.2696 102.216 96.1754 101.974 96.0324C101.732 95.8895 101.543 95.7003 101.402 95.5079C101.242 95.29 101.033 95.0944 100.792 94.9561C100.551 94.8173 100.282 94.7349 99.9953 94.7341C99.7446 94.7349 99.4779 94.7974 99.1994 94.9504C98.9352 95.0954 98.7652 95.2885 98.6554 95.5004C98.5462 95.7128 98.5 95.9446 98.5003 96.1558C98.4996 96.3514 98.5409 96.5285 98.5945 96.6401C98.6404 96.7369 98.5988 96.8521 98.5024 96.8979C98.4061 96.9439 98.2905 96.9022 98.2446 96.8059C98.1604 96.6273 98.1134 96.4026 98.1127 96.1558C98.1131 95.9105 98.1618 95.6423 98.2817 95.3859C98.0413 95.4404 97.818 95.4646 97.6146 95.4646C97.5047 95.4646 97.4012 95.4574 97.3027 95.4446L97.2668 95.5172L97.2664 95.5179L97.2635 95.5208L97.2532 95.5339L97.212 95.5901C97.1768 95.6406 97.128 95.7142 97.0751 95.8081C96.9694 95.9941 96.8485 96.2565 96.7898 96.5512C96.7689 96.6562 96.6672 96.7248 96.5622 96.7034C96.4574 96.6825 96.389 96.5808 96.4108 96.4751C96.4805 96.1256 96.6181 95.8283 96.7379 95.6167C96.8005 95.5072 96.8578 95.4205 96.8997 95.3614C96.7418 95.3141 96.6053 95.2562 96.4937 95.1971C96.2387 95.0616 96.106 94.9258 96.0947 94.9147C96.0207 94.8376 96.0228 94.7152 96.0996 94.6409C96.1768 94.567 96.2988 94.5691 96.3731 94.6452L96.3753 94.6473L96.3866 94.6583L96.4421 94.7049C96.4925 94.7447 96.5705 94.7995 96.6746 94.855C96.8837 94.9652 97.1959 95.0769 97.6145 95.0776C97.9085 95.0776 98.2553 95.0214 98.6581 94.8664C98.7602 94.7714 98.8779 94.6847 99.013 94.6107C99.3445 94.429 99.6783 94.3472 99.9952 94.3472C100.357 94.3472 100.694 94.4525 100.986 94.6203C101.277 94.7889 101.524 95.0197 101.714 95.2792C101.83 95.436 101.982 95.5879 102.17 95.6985C102.359 95.8094 102.583 95.8816 102.856 95.882C103.044 95.882 103.255 95.8471 103.494 95.7632C103.436 95.6697 103.349 95.5793 103.206 95.4975C103.113 95.4446 103.08 95.3265 103.132 95.2337C103.185 95.1402 103.303 95.1081 103.396 95.1601C103.625 95.2892 103.778 95.4602 103.867 95.6391C103.957 95.8172 103.984 95.9979 103.984 96.1515C103.983 96.4197 103.906 96.6135 103.9 96.6273ZM103.828 94.2552C103.376 94.2552 102.98 94.1332 102.66 93.9487C102.615 94.0113 102.554 94.0898 102.476 94.1752C102.301 94.3676 102.043 94.5934 101.699 94.7171C101.598 94.7527 101.487 94.7008 101.451 94.5998C101.415 94.4987 101.468 94.3882 101.568 94.3526C101.823 94.2619 102.035 94.0838 102.183 93.9227C102.251 93.8491 102.304 93.7794 102.342 93.7261C102.151 93.5646 102 93.3808 101.897 93.1916C101.799 93.0102 101.742 92.8232 101.741 92.6415C101.741 92.5348 101.828 92.448 101.935 92.448C102.042 92.448 102.128 92.5348 102.128 92.6415C102.128 92.7393 102.162 92.8698 102.237 93.0067C102.312 93.1439 102.425 93.2869 102.573 93.4149C102.868 93.6713 103.296 93.8676 103.828 93.8676C103.935 93.8676 104.021 93.9547 104.021 94.0618C104.021 94.1684 103.935 94.2552 103.828 94.2552ZM105.354 96.9816C105.286 97.0633 105.164 97.0754 105.081 97.0068C104.999 96.9389 104.987 96.8166 105.055 96.7344C105.266 96.478 105.344 96.2198 105.345 95.9727C105.346 95.7476 105.277 95.5303 105.168 95.3472C105.062 95.1644 104.914 95.0179 104.772 94.9365C104.677 94.8818 104.587 94.8572 104.516 94.8572C104.409 94.8572 104.323 94.7708 104.323 94.6638C104.323 94.5568 104.409 94.47 104.516 94.47C104.634 94.47 104.749 94.4988 104.859 94.5472C104.968 94.5948 105.071 94.6627 105.167 94.7456C105.359 94.9113 105.522 95.1368 105.624 95.401C105.692 95.5773 105.733 95.7708 105.733 95.9728C105.733 96.3049 105.62 96.6604 105.354 96.9816Z" fill="#87CEEB"/>
<path d="M96.2103 106.688L96.2235 106.699C96.2231 106.699 96.2231 106.699 96.2227 106.699L96.2103 106.688Z" fill="#87CEEB"/>
<path d="M107.834 91.0201C106.394 89.3356 104.227 88.1885 101.451 88.021C101.225 88.0071 101 88 100.778 88C98.443 88 96.2952 88.7581 94.7206 90.15C93.1449 91.5382 92.1638 93.5708 92.1674 96.0053C92.1674 96.0604 92.1677 96.1155 92.1688 96.171L92.1663 96.4647L90.1622 100.004C90.0544 100.195 90 100.408 90 100.621C90 100.799 90.0377 100.977 90.1141 101.144C90.276 101.497 90.5942 101.751 90.9711 101.838L90.9704 101.841L91.8921 102.095L92.2563 105.607L92.2591 105.607C92.2847 106.119 92.513 106.599 92.9007 106.936C93.2453 107.236 93.6851 107.399 94.1374 107.399C94.1833 107.399 94.2284 107.395 94.274 107.392L95.3184 107.475L95.3707 107.469L95.3874 107.468C95.4275 107.468 95.4649 107.483 95.4937 107.509L95.4954 107.51C95.5285 107.54 95.5481 107.584 95.5481 107.629V111.227H105.3V110.681C105.3 110.681 105.3 109.201 105.3 108.611C105.299 108.373 105.346 107.903 105.439 107.45C105.485 107.223 105.543 106.997 105.607 106.801C105.671 106.605 105.745 106.439 105.807 106.342C106.456 105.296 107.373 104.438 108.213 103.225C109.052 102.014 109.767 100.441 109.963 98.0561C109.988 97.7571 110 97.458 110 97.1604C110 94.899 109.277 92.7031 107.834 91.0201ZM108.874 97.965C108.684 100.182 108.064 101.509 107.313 102.606C106.563 103.702 105.636 104.563 104.881 105.762C104.749 105.974 104.653 106.209 104.57 106.459C104.447 106.832 104.359 107.24 104.299 107.619C104.239 108 104.208 108.345 104.207 108.611C104.207 108.99 104.207 109.563 104.207 110.134H96.6405V107.629C96.6405 107.273 96.489 106.934 96.2237 106.696C95.9922 106.488 95.6935 106.376 95.3873 106.376C95.3649 106.376 95.3432 106.378 95.3212 106.38L94.2779 106.296L94.2267 106.302L94.1374 106.307C93.9475 106.307 93.7626 106.238 93.6179 106.113C93.4508 105.967 93.3519 105.758 93.3455 105.536L93.3451 105.515L92.9021 101.241L91.2414 100.783L91.2215 100.779C91.171 100.769 91.1287 100.736 91.107 100.689L91.0924 100.621L91.113 100.542L93.2565 96.7567L93.2612 96.1654V96.1575C93.2601 96.1063 93.2598 96.0558 93.2598 96.0054C93.2634 93.8618 94.0965 92.1649 95.4442 90.9683C96.7934 89.7745 98.6773 89.0925 100.778 89.0925C100.978 89.0925 101.18 89.0989 101.383 89.1113L101.417 88.5662L101.384 89.1113C103.899 89.2696 105.75 90.2731 107.005 91.7314C108.258 93.1908 108.908 95.1291 108.908 97.1603C108.908 97.4273 108.897 97.6958 108.874 97.965Z" fill="#87CEEB"/>
</svg>
