<svg width="200" height="200" viewBox="0 0 200 200" fill="none" xmlns="http://www.w3.org/2000/svg">
<circle cx="100" cy="100" r="74.5" stroke="#73AFC8" stroke-opacity="0.8"/>
<circle cx="100" cy="100" r="49.5" stroke="#73AFC8" stroke-opacity="0.8"/>
<circle cx="100" cy="100" r="99.5" stroke="#73AFC8" stroke-opacity="0.8"/>
<circle cx="100" cy="100" r="25" fill="#A77B5A"/>
<path d="M90 98.2584C90 94.741 90 92.9823 90.4195 92.3907C90.8389 91.799 92.5092 91.233 95.8499 90.1009L96.4864 89.8852C98.2278 89.2951 99.0984 89 100 89C100.902 89 101.772 89.2951 103.514 89.8852L104.15 90.1009C107.491 91.233 109.161 91.799 109.581 92.3907C110 92.9823 110 94.741 110 98.2584C110 98.7896 110 99.3657 110 99.9905C110 106.192 105.29 109.202 102.335 110.48C101.533 110.827 101.133 111 100 111C98.8674 111 98.4667 110.827 97.6651 110.48C94.71 109.202 90 106.192 90 99.9905C90 99.3657 90 98.7896 90 98.2584Z" stroke="#87CEEB" stroke-width="1.25"/>
<path d="M105.555 99.9961C105.555 100.718 105.412 101.434 105.133 102.101C104.853 102.768 104.444 103.374 103.928 103.885C103.412 104.396 102.8 104.801 102.126 105.077C101.452 105.354 100.729 105.496 99.9999 105.496C99.2703 105.496 98.5479 105.354 97.8739 105.077C97.1998 104.801 96.5874 104.396 96.0715 103.885C95.5556 103.374 95.1464 102.768 94.8672 102.101C94.588 101.434 94.4443 100.718 94.4443 99.9961C94.4443 99.2738 94.588 98.5586 94.8672 97.8914C95.1464 97.224 95.5556 96.6177 96.0715 96.107C96.5874 95.5963 97.1998 95.1912 97.8739 94.9148C98.5479 94.6384 99.2703 94.4961 99.9999 94.4961C100.729 94.4961 101.452 94.6384 102.126 94.9148C102.8 95.1912 103.412 95.5963 103.928 96.107C104.444 96.6177 104.853 97.2241 105.133 97.8914C105.412 98.5586 105.555 99.2738 105.555 99.9961Z" stroke="#87CEEB" stroke-width="1.25"/>
<path d="M102.053 102.101C102.165 101.434 102.222 100.718 102.222 99.9961C102.222 99.2738 102.165 98.5586 102.053 97.8914C101.941 97.2241 101.778 96.6177 101.571 96.107C101.365 95.5963 101.12 95.1912 100.85 94.9148C100.581 94.6384 100.292 94.4961 99.9999 94.4961C99.7081 94.4961 99.4191 94.6384 99.1495 94.9148C98.8799 95.1912 98.6349 95.5963 98.4286 96.107C98.2222 96.6177 98.0586 97.224 97.9468 97.8914C97.8351 98.5586 97.7777 99.2738 97.7777 99.9961C97.7777 100.718 97.8351 101.434 97.9468 102.101C98.0585 102.768 98.2222 103.374 98.4286 103.885C98.6349 104.396 98.8799 104.801 99.1495 105.077C99.4191 105.354 99.7081 105.496 99.9999 105.496C100.292 105.496 100.581 105.354 100.85 105.077C101.12 104.801 101.365 104.396 101.571 103.885C101.778 103.374 101.941 102.768 102.053 102.101Z" stroke="#87CEEB" stroke-width="1.25"/>
<path d="M94.4443 100H105.555" stroke="#87CEEB" stroke-width="1.25" strokeLinecap="round"/>
</svg>
