<svg width="200" height="200" viewBox="0 0 200 200" fill="none" xmlns="http://www.w3.org/2000/svg">
<circle cx="100" cy="100" r="74.5" stroke="#73AFC8" stroke-opacity="0.8"/>
<circle cx="100" cy="100" r="49.5" stroke="#73AFC8" stroke-opacity="0.8"/>
<circle cx="100" cy="100" r="99.5" stroke="#73AFC8" stroke-opacity="0.8"/>
<circle cx="100" cy="100" r="25" fill="#A77B5A"/>
<path d="M103.633 102.564L106.167 100.664C109.171 98.4097 110.501 93.8639 109.829 90.1707C106.135 89.4989 101.589 90.8287 99.3359 93.8329L97.436 96.3673M103.633 102.564L99.295 105.662L94.3377 100.705L97.436 96.3673M103.633 102.564V105.869C103.633 106.942 103.285 107.986 102.641 108.844L101.774 110L100.534 108.761M97.436 96.3673H94.1307C93.0581 96.3673 92.0144 96.7152 91.1563 97.3588L90 98.2263L91.2393 99.4657M95.577 107.521L91.2393 108.761L92.6844 104.423M104.252 96.987C104.581 96.987 104.896 96.8564 105.129 96.624C105.361 96.3916 105.492 96.0763 105.492 95.7477C105.492 95.419 105.361 95.1037 105.129 94.8713C104.896 94.6389 104.581 94.5083 104.252 94.5083C103.924 94.5083 103.608 94.6389 103.376 94.8713C103.144 95.1037 103.013 95.419 103.013 95.7477C103.013 96.0763 103.144 96.3916 103.376 96.624C103.608 96.8564 103.924 96.987 104.252 96.987Z" stroke="#87CEEB" stroke-width="1.66667" strokeLinecap="round" stroke-linejoin="round"/>
</svg>
