<svg viewBox="0 0 405 280.5" fill="none" xmlns="http://www.w3.org/2000/svg" xmlns:xlink="http://www.w3.org/1999/xlink" id="b1be3cf6" x="0" y="0"><g id="HOMEPAGE" data-node-id="146:153" clip-path="url(#clip0_146_153)"><g id="OUR APPROACH " data-node-id="191:289"><g id="Frame 2147224307" data-node-id="191:292"><g id="Frame 2147224302" data-node-id="191:293"><g clip-path="url(#clip6_146_153)"><g id="Frame 2147224305" data-node-id="191:294">
<circle id="Ellipse 2829" data-node-id="191:295" cx="202" cy="123" r="74.5" stroke="#73AFC8" stroke-opacity="0.8"/>
<circle id="Ellipse 2830" data-node-id="191:296" cx="202" cy="123" r="49.5" stroke="#73AFC8" stroke-opacity="0.8"/>
<circle id="Ellipse 2831" data-node-id="191:297" cx="202" cy="123" r="99.5" stroke="#73AFC8" stroke-opacity="0.8"/>
<g id="Frame 2147224304" data-node-id="191:298">
<circle id="Ellipse 2833" data-node-id="191:299" cx="202" cy="123" r="25" fill="#A77B5A"/>
<g id="Group_14" data-node-id="191:300">
<path id="Vector_22" data-node-id="191:301" d="M209.002,117.94c-0.058,-0.06 -0.123,-0.11 -0.195,-0.16l-0.073,-0.01c-0.039,-0.02 -0.069,-0.05 -0.089,-0.08c-0.115,-0.06 -0.234,-0.09 -0.356,-0.11c-0.106,-0.01 -0.18,-0.11 -0.164,-0.22c0.014,-0.1 0.112,-0.18 0.218,-0.16c0.12,0.02 0.241,0.05 0.357,0.09c0.019,-0.08 0.029,-0.17 0.029,-0.26c0,-0.19 -0.045,-0.38 -0.14,-0.56c-0.109,-0.21 -0.268,-0.37 -0.455,-0.48c-0.164,-0.1 -0.349,-0.15 -0.539,-0.17c-0.013,0.18 -0.055,0.35 -0.126,0.52c-0.043,0.09 -0.157,0.14 -0.255,0.1c-0.098,-0.05 -0.144,-0.16 -0.101,-0.26c0.069,-0.16 0.101,-0.32 0.102,-0.49l-0.003,-0.07c-0.013,-0.23 -0.088,-0.45 -0.217,-0.63c-0.128,-0.19 -0.308,-0.34 -0.532,-0.44c-0.161,-0.07 -0.327,-0.1 -0.491,-0.1c-0.314,0 -0.618,0.12 -0.848,0.33c0.043,0.15 0.068,0.3 0.068,0.46c0,0.11 -0.088,0.2 -0.195,0.2c-0.106,0 -0.193,-0.09 -0.193,-0.2c0,-0.15 -0.029,-0.3 -0.082,-0.44h0.001c-0.09,-0.23 -0.248,-0.43 -0.45,-0.58c-0.202,-0.14 -0.446,-0.22 -0.712,-0.22c-0.231,0 -0.446,0.06 -0.631,0.17c-0.148,0.09 -0.275,0.21 -0.375,0.35c0.195,0.26 0.311,0.6 0.311,0.95c0,0.11 -0.087,0.2 -0.194,0.2c-0.107,0 -0.194,-0.09 -0.194,-0.2c0,-0.31 -0.115,-0.6 -0.308,-0.81c-0.228,-0.27 -0.561,-0.43 -0.934,-0.43c-0.26,0 -0.498,0.08 -0.698,0.21c-0.199,0.14 -0.357,0.33 -0.45,0.56c-0.061,0.14 -0.095,0.3 -0.095,0.47c0,0.11 -0.087,0.2 -0.194,0.2c-0.107,0 -0.193,-0.09 -0.193,-0.2c0,-0.15 0.023,-0.3 0.064,-0.45c-0.146,-0.06 -0.304,-0.09 -0.466,-0.09c-0.092,0 -0.184,0.01 -0.278,0.03c-0.276,0.06 -0.507,0.21 -0.676,0.41c-0.122,0.15 -0.208,0.32 -0.254,0.51c0.4,0 0.8,0.16 1.109,0.46c0.076,0.08 0.077,0.2 0.003,0.27c-0.075,0.08 -0.198,0.08 -0.274,0.01c-0.243,-0.24 -0.555,-0.36 -0.87,-0.36c-0.056,0 -0.112,0.01 -0.168,0.01h-0.001v0c-0.264,0.04 -0.518,0.16 -0.719,0.37c-0.237,0.24 -0.354,0.55 -0.355,0.87c0,0.17 0.039,0.36 0.118,0.52c0.06,0.13 0.146,0.26 0.256,0.36v0c0.124,0.13 0.268,0.22 0.421,0.28c0.1,0.03 0.15,0.15 0.111,0.25c-0.039,0.1 -0.151,0.15 -0.251,0.11c-0.2,-0.08 -0.389,-0.2 -0.553,-0.36c-0.071,-0.07 -0.135,-0.15 -0.191,-0.23c-0.146,0.21 -0.226,0.46 -0.226,0.72c0,0.2 0.048,0.4 0.147,0.58c0.113,0.21 0.275,0.38 0.467,0.49c0.151,0.09 0.32,0.14 0.494,0.16v-0.01c0,-0.1 0.009,-0.2 0.027,-0.3c0.02,-0.1 0.121,-0.17 0.225,-0.15c0.106,0.02 0.175,0.12 0.156,0.22c-0.014,0.08 -0.021,0.15 -0.021,0.23l0.003,0.09l0.01,0.09v0l0.001,0.01c0.089,0.6 0.613,1.06 1.228,1.06l0.089,-0.01h0.001c0.272,-0.02 0.517,-0.12 0.711,-0.29c0.136,-0.11 0.248,-0.25 0.324,-0.42c0.045,-0.09 0.162,-0.13 0.258,-0.09c0.097,0.05 0.138,0.16 0.092,0.26c-0.082,0.17 -0.196,0.33 -0.331,0.46c0.076,0.24 0.219,0.44 0.405,0.59c0.214,0.17 0.483,0.27 0.774,0.27h0.089h0.001c0.184,-0.02 0.354,-0.07 0.505,-0.15c-0.023,-0.11 -0.037,-0.23 -0.037,-0.34c0,-0.24 0.053,-0.48 0.163,-0.71c0.047,-0.1 0.162,-0.14 0.258,-0.09c0.096,0.05 0.137,0.16 0.091,0.26c-0.084,0.17 -0.124,0.36 -0.124,0.54c0,0.13 0.02,0.25 0.057,0.37h0.001c0.099,0.32 0.323,0.59 0.645,0.75c0.175,0.08 0.358,0.12 0.539,0.12c0.287,0 0.567,-0.1 0.79,-0.28h0.001c0.135,-0.11 0.248,-0.25 0.329,-0.42h0.001c0.075,-0.16 0.115,-0.32 0.122,-0.49c0.005,-0.1 0.095,-0.19 0.202,-0.18c0.107,0 0.19,0.09 0.185,0.2c-0.009,0.22 -0.062,0.43 -0.161,0.64v0c-0.08,0.16 -0.184,0.31 -0.307,0.43c0.228,0.33 0.608,0.54 1.018,0.54c0.076,0 0.154,-0.01 0.232,-0.02c0.299,-0.06 0.551,-0.22 0.73,-0.44c0.179,-0.21 0.283,-0.49 0.283,-0.78v-0.03v0c-0.001,-0.07 -0.008,-0.14 -0.021,-0.2c-0.031,-0.17 -0.094,-0.32 -0.18,-0.45c-0.125,-0.11 -0.264,-0.25 -0.396,-0.41c-0.139,-0.18 -0.268,-0.36 -0.355,-0.55c-0.056,-0.13 -0.097,-0.25 -0.098,-0.39c0,-0.06 0.008,-0.12 0.031,-0.18c0.022,-0.06 0.057,-0.11 0.105,-0.16c0.075,-0.08 0.197,-0.08 0.273,0c0.076,0.07 0.076,0.2 0,0.27l-0.014,0.03l-0.008,0.04c-0.001,0.05 0.02,0.13 0.063,0.23c0.044,0.09 0.108,0.2 0.184,0.3c0.15,0.21 0.345,0.42 0.491,0.55l0.02,0.01l0.015,0.03c0.119,0.17 0.207,0.38 0.25,0.6v0l0.013,0.1h0.058c0.246,0 0.493,-0.07 0.71,-0.22c0.173,-0.12 0.305,-0.28 0.393,-0.46c0.09,-0.17 0.136,-0.37 0.136,-0.56c0,-0.18 -0.041,-0.37 -0.123,-0.54c-0.077,0.03 -0.154,0.04 -0.233,0.06c-0.105,0.02 -0.205,-0.05 -0.224,-0.16c-0.018,-0.11 0.053,-0.2 0.159,-0.22c0.342,-0.06 0.656,-0.26 0.85,-0.58c0.124,-0.2 0.181,-0.43 0.181,-0.65c0,-0.32 -0.124,-0.64 -0.357,-0.87zM200.13,116.46c0.185,-0.22 0.431,-0.37 0.695,-0.47c0.264,-0.1 0.548,-0.15 0.821,-0.15c0.265,0 0.519,0.04 0.735,0.14c0.097,0.05 0.139,0.16 0.095,0.26c-0.045,0.1 -0.16,0.14 -0.257,0.09c-0.15,-0.07 -0.354,-0.11 -0.573,-0.11c-0.226,0 -0.466,0.05 -0.682,0.13c-0.216,0.08 -0.405,0.21 -0.539,0.36c-0.068,0.08 -0.191,0.1 -0.273,0.03c-0.081,-0.07 -0.091,-0.2 -0.022,-0.28zM204.537,121.04c-0.225,0 -0.429,-0.02 -0.616,-0.07c0.005,0.06 0.009,0.12 0.009,0.18c0,0.12 -0.014,0.27 -0.053,0.42c-0.04,0.15 -0.107,0.31 -0.213,0.46c-0.061,0.09 -0.182,0.11 -0.27,0.05c-0.088,-0.06 -0.109,-0.18 -0.049,-0.27c0.078,-0.11 0.127,-0.23 0.157,-0.34c0.03,-0.11 0.041,-0.22 0.041,-0.32c0,-0.14 -0.021,-0.25 -0.036,-0.32c-0.094,-0.04 -0.182,-0.09 -0.263,-0.14c-0.324,-0.21 -0.541,-0.49 -0.677,-0.75c-0.092,-0.18 -0.147,-0.35 -0.177,-0.5c-0.017,-0.08 -0.026,-0.16 -0.026,-0.23c0,-0.1 0.087,-0.19 0.194,-0.19c0.107,0 0.194,0.09 0.194,0.19c0,0.06 0.012,0.15 0.042,0.26c0.031,0.11 0.08,0.23 0.15,0.35c0.141,0.25 0.365,0.5 0.712,0.66c0.231,0.1 0.519,0.17 0.881,0.17c0.107,0 0.194,0.09 0.194,0.2c0,0.1 -0.087,0.19 -0.194,0.19zM205.9,119.63c-0.039,0.1 -0.152,0.14 -0.252,0.11c-0.099,-0.04 -0.147,-0.16 -0.107,-0.26v0h0.001l0.005,-0.02l0.02,-0.07c0.015,-0.06 0.03,-0.14 0.03,-0.24l-0.001,-0.01c-0.266,0.09 -0.512,0.13 -0.74,0.13c-0.343,0 -0.64,-0.09 -0.882,-0.24c-0.242,-0.14 -0.431,-0.33 -0.572,-0.52c-0.16,-0.22 -0.369,-0.42 -0.61,-0.55c-0.241,-0.14 -0.51,-0.23 -0.797,-0.23c-0.25,0 -0.517,0.07 -0.796,0.22c-0.264,0.15 -0.434,0.34 -0.544,0.55c-0.109,0.21 -0.155,0.44 -0.155,0.66c0,0.19 0.041,0.37 0.095,0.48c0.045,0.1 0.004,0.21 -0.093,0.26c-0.096,0.04 -0.211,0 -0.257,-0.09c-0.085,-0.18 -0.132,-0.41 -0.132,-0.65c0,-0.25 0.049,-0.52 0.169,-0.77c-0.241,0.05 -0.464,0.07 -0.667,0.07c-0.11,0 -0.214,0 -0.312,-0.02l-0.036,0.08h-0.001h-0.002l-0.011,0.01l-0.041,0.06c-0.035,0.05 -0.084,0.12 -0.137,0.22c-0.106,0.18 -0.226,0.45 -0.285,0.74c-0.021,0.11 -0.123,0.17 -0.228,0.15c-0.105,-0.02 -0.173,-0.12 -0.151,-0.22c0.069,-0.35 0.207,-0.65 0.327,-0.86c0.063,-0.11 0.12,-0.2 0.162,-0.26c-0.158,-0.05 -0.295,-0.1 -0.406,-0.16c-0.255,-0.14 -0.388,-0.27 -0.399,-0.29c-0.074,-0.07 -0.072,-0.19 0.005,-0.27c0.077,-0.07 0.199,-0.07 0.273,0.01h0.002l0.012,0.01l0.055,0.04c0.051,0.04 0.128,0.1 0.233,0.15c0.209,0.12 0.521,0.23 0.939,0.23c0.295,0 0.641,-0.06 1.044,-0.21c0.102,-0.1 0.22,-0.19 0.355,-0.26c0.331,-0.18 0.665,-0.26 0.982,-0.26c0.362,0 0.699,0.1 0.991,0.27c0.291,0.17 0.538,0.4 0.728,0.66c0.116,0.16 0.268,0.31 0.456,0.42c0.189,0.11 0.413,0.18 0.686,0.18c0.188,0 0.399,-0.03 0.638,-0.12c-0.058,-0.09 -0.145,-0.18 -0.288,-0.26c-0.093,-0.06 -0.126,-0.17 -0.074,-0.27c0.053,-0.09 0.171,-0.12 0.264,-0.07c0.229,0.13 0.382,0.3 0.471,0.48c0.09,0.18 0.117,0.36 0.117,0.51c-0.001,0.27 -0.078,0.46 -0.084,0.48zM205.828,117.26c-0.452,0 -0.848,-0.13 -1.168,-0.31c-0.045,0.06 -0.106,0.14 -0.184,0.23c-0.175,0.19 -0.433,0.41 -0.777,0.54c-0.101,0.03 -0.212,-0.02 -0.248,-0.12c-0.036,-0.1 0.017,-0.21 0.117,-0.25c0.255,-0.09 0.467,-0.27 0.615,-0.43c0.068,-0.07 0.121,-0.14 0.159,-0.19c-0.191,-0.17 -0.342,-0.35 -0.445,-0.54c-0.098,-0.18 -0.155,-0.37 -0.156,-0.55c0,-0.11 0.087,-0.19 0.194,-0.19c0.107,0 0.193,0.08 0.193,0.19c0,0.1 0.034,0.23 0.109,0.37c0.075,0.13 0.188,0.28 0.336,0.4c0.295,0.26 0.723,0.46 1.255,0.46c0.107,0 0.193,0.08 0.193,0.19c0,0.11 -0.086,0.2 -0.193,0.2zM207.354,119.98c-0.068,0.08 -0.19,0.1 -0.273,0.03c-0.082,-0.07 -0.094,-0.19 -0.026,-0.28c0.211,-0.25 0.289,-0.51 0.29,-0.76c0.001,-0.22 -0.068,-0.44 -0.177,-0.62c-0.106,-0.19 -0.254,-0.33 -0.396,-0.41c-0.095,-0.06 -0.185,-0.08 -0.256,-0.08c-0.107,0 -0.193,-0.09 -0.193,-0.2c0,-0.1 0.086,-0.19 0.193,-0.19c0.118,0 0.233,0.03 0.343,0.08c0.109,0.04 0.212,0.11 0.308,0.2c0.192,0.16 0.355,0.39 0.457,0.65c0.068,0.18 0.109,0.37 0.109,0.57c0,0.33 -0.113,0.69 -0.379,1.01z" fill="#87CEEB"/>
<path id="Vector_23" data-node-id="191:302" d="M198.21,129.69l0.013,0.01v0z" fill="#87CEEB"/>
<path id="Vector_24" data-node-id="191:303" d="M209.834,114.02c-1.44,-1.68 -3.607,-2.83 -6.383,-3c-0.226,-0.01 -0.451,-0.02 -0.673,-0.02c-2.335,0 -4.483,0.76 -6.057,2.15c-1.576,1.39 -2.557,3.42 -2.554,5.86c0,0.05 0.001,0.11 0.002,0.16l-0.003,0.29l-2.004,3.54c-0.108,0.19 -0.162,0.41 -0.162,0.62c0,0.18 0.038,0.36 0.114,0.52c0.162,0.36 0.48,0.61 0.857,0.7h-0.001l0.922,0.26l0.364,3.51h0.003c0.026,0.51 0.254,0.99 0.642,1.33c0.344,0.3 0.784,0.46 1.236,0.46c0.046,0 0.091,0 0.137,-0.01l1.044,0.08h0.053h0.016c0.041,0 0.078,0.01 0.107,0.04h0.001c0.034,0.03 0.053,0.07 0.053,0.12v3.6h9.752v-0.55c0,0 0,-1.48 0,-2.07c-0.001,-0.24 0.046,-0.71 0.139,-1.16c0.046,-0.23 0.104,-0.45 0.168,-0.65c0.064,-0.19 0.138,-0.36 0.2,-0.46c0.649,-1.04 1.566,-1.9 2.406,-3.11c0.839,-1.22 1.554,-2.79 1.75,-5.17c0.025,-0.3 0.037,-0.6 0.037,-0.9c0,-2.26 -0.723,-4.46 -2.166,-6.14zM210.874,120.96c-0.19,2.22 -0.81,3.55 -1.561,4.65c-0.75,1.09 -1.677,1.95 -2.432,3.15c-0.132,0.21 -0.228,0.45 -0.311,0.7c-0.123,0.37 -0.211,0.78 -0.271,1.16c-0.06,0.38 -0.091,0.72 -0.092,0.99c0,0.38 0,0.95 0,1.52h-7.567v-2.5c0,-0.36 -0.151,-0.7 -0.416,-0.93c-0.232,-0.21 -0.531,-0.32 -0.837,-0.32c-0.022,0 -0.044,0 -0.066,0l-1.043,-0.08h-0.051l-0.09,0.01c-0.189,0 -0.374,-0.07 -0.519,-0.2c-0.167,-0.14 -0.266,-0.35 -0.273,-0.57v-0.02l-0.443,-4.28l-1.661,-0.46h-0.02c-0.05,-0.01 -0.092,-0.04 -0.114,-0.09l-0.015,-0.07l0.021,-0.08l2.144,-3.78l0.004,-0.59v-0.01c-0.001,-0.05 -0.001,-0.1 -0.001,-0.15c0.003,-2.15 0.836,-3.85 2.184,-5.04c1.349,-1.2 3.233,-1.88 5.334,-1.88c0.2,0 0.402,0.01 0.605,0.02l0.034,-0.54l-0.033,0.54c2.515,0.16 4.366,1.16 5.621,2.62c1.253,1.46 1.903,3.4 1.903,5.43c0,0.27 -0.011,0.54 -0.034,0.8z" fill="#87CEEB"/>
</g>
</g>
</g><g id="Rectangle 34624272" data-node-id="191:304" filter="url(#filter2_f_146_153)">
<path d="M0,161h405v119h-405z" fill="#F9F5EC"/>
</g><g id="Rectangle 34624273" data-node-id="191:309" filter="url(#filter3_f_146_153)">
<path d="M-1,-23h405v87h-405z" fill="#F9F5EC"/>
</g></g></g></g></g></g><defs><filter id="filter2_f_146_153" x="-40" y="121" width="485" height="199" filterUnits="userSpaceOnUse" color-interpolation-filters="sRGB">
<feFlood flood-opacity="0" result="BackgroundImageFix"/>
<feBlend mode="normal" in="SourceGraphic" in2="BackgroundImageFix" result="shape"/>
<feGaussianBlur stdDeviation="20" result="effect1_foregroundBlur_146_153"/>
</filter><filter id="filter3_f_146_153" x="-41" y="-63" width="485" height="167" filterUnits="userSpaceOnUse" color-interpolation-filters="sRGB">
<feFlood flood-opacity="0" result="BackgroundImageFix"/>
<feBlend mode="normal" in="SourceGraphic" in2="BackgroundImageFix" result="shape"/>
<feGaussianBlur stdDeviation="20" result="effect1_foregroundBlur_146_153"/>
</filter><clipPath id="clip0_146_153">
<rect width="1440" height="6082" fill="white" x="-80" y="-2323"/>
</clipPath><clipPath id="clip6_146_153">
<rect x="0" y="0" width="405" height="380" rx="8" fill="white"/>
</clipPath></defs></svg>