<svg viewBox="0.0000 0.0000 1440.0000 864.0000" x="0" y="0" fill="none" xmlns="http://www.w3.org/2000/svg"><defs><filter id="filter0_f_146_153" x="113.6" y="-4.42343" width="1212.8" height="1030.82" filterUnits="userSpaceOnUse" color-interpolation-filters="sRGB" xmlns="http://www.w3.org/2000/svg">
<feFlood flood-opacity="0" result="BackgroundImageFix"/>
<feBlend mode="normal" in="SourceGraphic" in2="BackgroundImageFix" result="shape"/>
<feGaussianBlur stdDeviation="93.2" result="effect1_foregroundBlur_146_153"/>
</filter><linearGradient id="paint0_linear_146_153" x1="467.47" y1="263.288" x2="1072.5" y2="563.902" gradientUnits="userSpaceOnUse" xmlns="http://www.w3.org/2000/svg">
<stop stop-color="#87CEEB"/>
<stop offset="0.313324" stop-color="#A77B5A"/>
<stop offset="0.780691" stop-color="#F39C12"/>
<stop offset="1" stop-color="#E74D3C"/>
</linearGradient></defs><g id="Bg" xmlns="http://www.w3.org/2000/svg">
<g id="Group 1171275310">
<g id="Ellipse 2827" filter="url(#filter0_f_146_153)">
<path d="M1040 419.574C1040 474.582 1025.86 528.663 998.935 576.612C972.012 624.561 933.215 664.762 886.279 693.345C839.343 721.928 785.848 737.931 730.946 739.812C676.043 741.694 621.581 729.391 572.804 704.088C524.026 678.785 482.575 641.334 452.441 595.341C422.307 549.348 404.505 496.361 400.749 441.482C396.993 386.603 407.409 331.68 430.996 282" stroke="url(#paint0_linear_146_153)" stroke-opacity="0.4" stroke-width="200" strokeLinecap="round" stroke-linejoin="round"/>
</g>
</g>
<g id="Group 8" opacity="0.6">
<line id="Line 1" x1="105.5" y1="2.18557e-08" x2="105.5" y2="934" stroke="#28282A" stroke-opacity="0.2" stroke-dasharray="3 3"/>
<line id="Line 2" x1="225.5" y1="2.18557e-08" x2="225.5" y2="934" stroke="#28282A" stroke-opacity="0.2" stroke-dasharray="3 3"/>
<line id="Line 12" x1="1440" y1="543.117" y2="543.117" stroke="#28282A" stroke-opacity="0.2" stroke-dasharray="3 3"/>
<line id="Line 39" x1="1440" y1="606.273" y2="606.273" stroke="#28282A" stroke-opacity="0.2" stroke-dasharray="3 3"/>
<line id="Line 40" x1="1440" y1="754.805" y2="754.805" stroke="#28282A" stroke-opacity="0.2" stroke-dasharray="3 3"/>
<line id="Line 37" x1="1440" y1="790.367" y2="790.367" stroke="#28282A" stroke-opacity="0.2" stroke-dasharray="3 3"/>
<line id="Line 13" x1="1440" y1="389.117" y2="389.117" stroke="#28282A" stroke-opacity="0.2" stroke-dasharray="3 3"/>
<line id="Line 14" x1="1440" y1="105.383" y2="105.383" stroke="#28282A" stroke-opacity="0.2" stroke-dasharray="3 3"/>
<line id="Line 15" x1="1440" y1="260.641" y2="260.641" stroke="#28282A" stroke-opacity="0.2" stroke-dasharray="3 3"/>
<line id="Line 3" x1="345.5" y1="2.18557e-08" x2="345.5" y2="934" stroke="#28282A" stroke-opacity="0.2" stroke-dasharray="3 3"/>
<line id="Line 4" x1="465.5" y1="2.18557e-08" x2="465.5" y2="934" stroke="#28282A" stroke-opacity="0.2" stroke-dasharray="3 3"/>
<line id="Line 5" x1="585.5" y1="2.18557e-08" x2="585.5" y2="934" stroke="#28282A" stroke-opacity="0.2" stroke-dasharray="3 3"/>
<line id="Line 6" x1="705.5" y1="2.18557e-08" x2="705.5" y2="934" stroke="#28282A" stroke-opacity="0.2" stroke-dasharray="3 3"/>
<line id="Line 7" x1="825.5" y1="2.18557e-08" x2="825.5" y2="934" stroke="#28282A" stroke-opacity="0.2" stroke-dasharray="3 3"/>
<line id="Line 8" x1="945.5" y1="2.18557e-08" x2="945.5" y2="934" stroke="#28282A" stroke-opacity="0.2" stroke-dasharray="3 3"/>
<line id="Line 9" x1="1065.5" y1="2.18557e-08" x2="1065.5" y2="934" stroke="#28282A" stroke-opacity="0.2" stroke-dasharray="3 3"/>
<line id="Line 10" x1="1185.5" y1="2.18557e-08" x2="1185.5" y2="934" stroke="#28282A" stroke-opacity="0.2" stroke-dasharray="3 3"/>
<line id="Line 11" x1="1305.5" y1="2.18557e-08" x2="1305.5" y2="934" stroke="#28282A" stroke-opacity="0.2" stroke-dasharray="3 3"/>
<g id="Group 9">
<line id="Line 16" y1="-0.5" x2="19.8345" y2="-0.5" transform="matrix(-0.806677 0.590993 -0.806677 -0.590993 361 389.023)" stroke="#C9C9C9"/>
<line id="Line 17" y1="-0.5" x2="35.95" y2="-0.5" transform="matrix(-0.806677 0.590993 -0.806677 -0.590993 375 389.023)" stroke="#C9C9C9"/>
<line id="Line 18" y1="-0.5" x2="58.2637" y2="-0.5" transform="matrix(-0.806677 0.590993 -0.806677 -0.590993 392 388.289)" stroke="#C9C9C9"/>
<line id="Line 19" y1="-0.5" x2="78.0982" y2="-0.5" transform="matrix(-0.806677 0.590993 -0.806677 -0.590993 408 388.289)" stroke="#C9C9C9"/>
<line id="Line 20" y1="-0.5" x2="95.4533" y2="-0.5" transform="matrix(-0.806677 0.590993 -0.806677 -0.590993 423 388.289)" stroke="#C9C9C9"/>
<line id="Line 21" y1="-0.5" x2="115.288" y2="-0.5" transform="matrix(-0.806677 0.590993 -0.806677 -0.590993 438 388.289)" stroke="#C9C9C9"/>
<line id="Line 22" y1="-0.5" x2="132.643" y2="-0.5" transform="matrix(-0.806677 0.590993 -0.806677 -0.590993 453 388.289)" stroke="#C9C9C9"/>
<line id="Line 23" y1="-0.5" x2="147.519" y2="-0.5" transform="matrix(-0.806677 0.590993 -0.806677 -0.590993 465 391.219)" stroke="#C9C9C9"/>
<line id="Line 24" y1="-0.5" x2="147.519" y2="-0.5" transform="matrix(-0.806677 0.590993 -0.806677 -0.590993 464 403.672)" stroke="#C9C9C9"/>
<line id="Line 25" y1="-0.5" x2="145.039" y2="-0.5" transform="matrix(-0.806677 0.590993 -0.806677 -0.590993 463 415.398)" stroke="#C9C9C9"/>
<line id="Line 26" y1="-0.5" x2="145.039" y2="-0.5" transform="matrix(-0.806677 0.590993 -0.806677 -0.590993 463 427.117)" stroke="#C9C9C9"/>
<line id="Line 27" y1="-0.5" x2="145.039" y2="-0.5" transform="matrix(-0.806677 0.590993 -0.806677 -0.590993 463 438.844)" stroke="#C9C9C9"/>
<line id="Line 28" y1="-0.5" x2="147.519" y2="-0.5" transform="matrix(-0.806677 0.590993 -0.806677 -0.590993 464 449.102)" stroke="#C9C9C9"/>
<line id="Line 29" y1="-0.5" x2="140.081" y2="-0.5" transform="matrix(-0.806677 0.590993 -0.806677 -0.590993 465 460.086)" stroke="#C9C9C9"/>
<line id="Line 30" y1="-0.5" x2="117.767" y2="-0.5" transform="matrix(-0.806677 0.590993 -0.806677 -0.590993 462 473.273)" stroke="#C9C9C9"/>
<line id="Line 31" y1="-0.5" x2="100.412" y2="-0.5" transform="matrix(-0.806677 0.590993 -0.806677 -0.590993 464 483.531)" stroke="#C9C9C9"/>
<line id="Line 32" y1="-0.5" x2="81.8171" y2="-0.5" transform="matrix(-0.806677 0.590993 -0.806677 -0.590993 463 495.25)" stroke="#C9C9C9"/>
<line id="Line 33" y1="-0.5" x2="61.9827" y2="-0.5" transform="matrix(-0.806677 0.590993 -0.806677 -0.590993 464 506.242)" stroke="#C9C9C9"/>
<line id="Line 34" y1="-0.5" x2="44.6275" y2="-0.5" transform="matrix(-0.806677 0.590993 -0.806677 -0.590993 465 516.5)" stroke="#C9C9C9"/>
<line id="Line 35" y1="-0.5" x2="24.7931" y2="-0.5" transform="matrix(-0.806677 0.590993 -0.806677 -0.590993 465 528.219)" stroke="#C9C9C9"/>
<line id="Line 36" y1="-0.5" x2="4.95861" y2="-0.5" transform="matrix(-0.806677 0.590993 -0.806677 -0.590993 465 539.945)" stroke="#C9C9C9"/>
</g>
<g id="Group 10">
<line id="Line 16_2" y1="-0.5" x2="26.3289" y2="-0.5" transform="matrix(-0.607698 0.794168 -0.607698 -0.794168 961 267.859)" stroke="#C9C9C9"/>
<line id="Line 17_2" y1="-0.5" x2="47.7211" y2="-0.5" transform="matrix(-0.607698 0.794168 -0.607698 -0.794168 975 267.859)" stroke="#C9C9C9"/>
<line id="Line 18_2" y1="-0.5" x2="77.341" y2="-0.5" transform="matrix(-0.607698 0.794168 -0.607698 -0.794168 992 266.555)" stroke="#C9C9C9"/>
<line id="Line 19_2" y1="-0.5" x2="103.67" y2="-0.5" transform="matrix(-0.607698 0.794168 -0.607698 -0.794168 1008 266.555)" stroke="#C9C9C9"/>
<line id="Line 20_2" y1="-0.5" x2="126.708" y2="-0.5" transform="matrix(-0.607698 0.794168 -0.607698 -0.794168 1023 266.555)" stroke="#C9C9C9"/>
<line id="Line 21_2" y1="-0.5" x2="153.036" y2="-0.5" transform="matrix(-0.607698 0.794168 -0.607698 -0.794168 1038 266.555)" stroke="#C9C9C9"/>
<line id="Line 22_2" y1="-0.5" x2="176.074" y2="-0.5" transform="matrix(-0.607698 0.794168 -0.607698 -0.794168 1053 266.555)" stroke="#C9C9C9"/>
<line id="Line 23_2" y1="-0.5" x2="195.821" y2="-0.5" transform="matrix(-0.607698 0.794168 -0.607698 -0.794168 1065 271.781)" stroke="#C9C9C9"/>
<line id="Line 24_2" y1="-0.5" x2="195.821" y2="-0.5" transform="matrix(-0.607698 0.794168 -0.607698 -0.794168 1064 294)" stroke="#C9C9C9"/>
<line id="Line 25_2" y1="-0.5" x2="192.53" y2="-0.5" transform="matrix(-0.607698 0.794168 -0.607698 -0.794168 1063 314.906)" stroke="#C9C9C9"/>
<line id="Line 26_2" y1="-0.5" x2="192.53" y2="-0.5" transform="matrix(-0.607698 0.794168 -0.607698 -0.794168 1063 335.812)" stroke="#C9C9C9"/>
<line id="Line 27_2" y1="-0.5" x2="192.53" y2="-0.5" transform="matrix(-0.607698 0.794168 -0.607698 -0.794168 1063 356.727)" stroke="#C9C9C9"/>
<line id="Line 28_2" y1="-0.5" x2="195.821" y2="-0.5" transform="matrix(-0.607698 0.794168 -0.607698 -0.794168 1064 375.023)" stroke="#C9C9C9"/>
<line id="Line 29_2" y1="-0.5" x2="185.948" y2="-0.5" transform="matrix(-0.607698 0.794168 -0.607698 -0.794168 1065 394.625)" stroke="#C9C9C9"/>
<line id="Line 30_2" y1="-0.5" x2="156.328" y2="-0.5" transform="matrix(-0.607698 0.794168 -0.607698 -0.794168 1062 418.148)" stroke="#C9C9C9"/>
<line id="Line 31_2" y1="-0.5" x2="133.29" y2="-0.5" transform="matrix(-0.607698 0.794168 -0.607698 -0.794168 1064 436.445)" stroke="#C9C9C9"/>
<line id="Line 32_2" y1="-0.5" x2="108.607" y2="-0.5" transform="matrix(-0.607698 0.794168 -0.607698 -0.794168 1063 457.352)" stroke="#C9C9C9"/>
<line id="Line 33_2" y1="-0.5" x2="82.2777" y2="-0.5" transform="matrix(-0.607698 0.794168 -0.607698 -0.794168 1064 476.953)" stroke="#C9C9C9"/>
<line id="Line 34_2" y1="-0.5" x2="59.2399" y2="-0.5" transform="matrix(-0.607698 0.794168 -0.607698 -0.794168 1065 495.25)" stroke="#C9C9C9"/>
<line id="Line 35_2" y1="-0.5" x2="32.9111" y2="-0.5" transform="matrix(-0.607698 0.794168 -0.607698 -0.794168 1065 516.164)" stroke="#C9C9C9"/>
<line id="Line 36_2" y1="-0.5" x2="6.58222" y2="-0.5" transform="matrix(-0.607698 0.794168 -0.607698 -0.794168 1065 537.07)" stroke="#C9C9C9"/>
</g>
</g>
</g></svg>