<svg viewBox="0 0 605.5879 48" x="0" y="0" fill="none" xmlns="http://www.w3.org/2000/svg"><defs><clipPath id="clip31_146_153" xmlns="http://www.w3.org/2000/svg">
<rect width="44" height="44" fill="white" transform="translate(423.588, 2)"/>
</clipPath></defs><g id="INNER_2" xmlns="http://www.w3.org/2000/svg">
<g id="cybex-international-logo-vector 1">
<g id="Group_16">
<path id="Vector_30" d="M30.4202,9.2c-34.2448,-0.92 -60.0601,4.12 -61.2126,12.58c-0.5927,4.35 14.8175,11.79 24.1689,13.47c-8.3307,1.64 -19.4932,2.53 -33.4545,2.5l-0.922,0.69c37.5705,1.98 63.6164,-1.25 64.7359,-10.34c0.7244,-5.89 -19.0981,-12.67 -19.0981,-12.67l-0.8232,0.19c0,0 7.5076,3.56 7.5076,8.2c0,4.94 -5.5977,8.76 -16.5627,11.13c-7.3099,-2.63 -11.5905,-5.86 -11.5247,-9.35c0.1317,-8.13 16.9907,-14.49 46.6915,-15.34z" fill="black"/>
<path id="Vector_31" d="M38.257,32.94c1.021,0 2.107,-0.82 2.437,-1.84l0.658,-2.01h6.849l-2.996,9.15h-21.4032l9.549,-29.17h21.4032l-2.536,7.73h-6.849l0.099,-0.29c0.329,-1.02 -0.23,-1.85 -1.218,-1.85h-3.161h-0.033c-1.021,0 -2.075,0.86 -2.404,1.85l-4.7744,14.62c-0.3292,0.95 0.2305,1.84 1.2513,1.84h3.1281z" fill="black"/>
</g>
<path id="Vector_32" d="M55.38,9.14h7.672l1.613,9.48l6.948,-9.48h8.001l-13.467,18.3l-3.425,10.84h-7.474l3.26,-10.84z" fill="black"/>
<g id="Group_17">
<path id="Vector_33" d="M118.93,32.74h-11.426c0,0 -2.239,-0.1 -1.58,-2.17l1.383,-4.22h12.249l1.778,-5.43h-12.282c0,0 0.724,-2.17 1.482,-4.48c0.724,-2.24 2.93,-2.01 2.93,-2.01h9.977l1.778,-5.43h-19.921l-9.549,29.17h21.403zM133.55,29.22c-0.198,0 -0.296,0.23 -0.527,0.56l-5.696,8.43h-8.924l10.076,-14.69l-1.086,-14.49h7.836l0.56,7.91c0,0.13 0,0.36 0.099,0.36c0.066,0 0.099,-0.13 0.23,-0.27l5.631,-8h9.055l-9.944,13.54l1.416,15.64h-7.738l-0.823,-8.37c0,-0.42 -0.033,-0.62 -0.165,-0.62zM85.904,32.71c0.987,0 2.568,-0.73 3.029,-1.78l0.527,-1.55c0.625,-1.94 1.35,-3.32 -1.482,-3.32h-5.137l-2.206,6.68zM96.408,9.03c3.885,0 5.169,2.74 4.148,5.86l-1.646,4.78c-1.021,2.76 -4.083,3.42 -4.083,3.42c3.688,0.66 2.305,4.09 2.305,4.09c-0.395,1.41 -0.626,2.2 -1.087,3.59c-0.625,1.94 -1.119,3.52 -1.712,4.93c-0.56,1.35 -2.437,2.47 -4.939,2.47h-18.341l9.549,-29.17zM90.382,14.47h-3.754l-2.074,6.35h3.622c2.733,0.1 3.918,-1.05 4.544,-3l0.559,-1.58c0.33,-0.98 -0.032,-1.77 -0.79,-1.77z" fill="black"/>
<path id="Vector_34" d="M154.13,11.21c0.362,0 0.658,-0.03 0.79,-0.43c0.099,-0.33 -0.165,-0.39 -0.461,-0.39h-0.56l-0.263,0.85h0.494zM153.142,12.76h-0.395l0.889,-2.74h1.021c0.625,0 0.889,0.23 0.691,0.76c-0.164,0.49 -0.527,0.69 -0.955,0.76l0.395,1.18h-0.461l-0.329,-1.18h-0.461zM153.438,13.35c1.054,0 2.174,-0.82 2.569,-1.98c0.362,-1.12 -0.198,-1.94 -1.252,-1.94c-1.086,0 -2.206,0.86 -2.568,1.94c-0.395,1.16 0.198,1.98 1.251,1.98zM151.693,11.37c0.428,-1.35 1.877,-2.33 3.161,-2.33c1.284,0 2.042,0.98 1.614,2.33c-0.461,1.39 -1.877,2.37 -3.161,2.37c-1.285,0 -2.042,-0.98 -1.614,-2.37z" fill="black"/>
</g>
</g>
<g id="Fictional company logo_9">
<g id="Logomark_9">
<path id="Shape_19" d="M222.017,2h-16.858l-13.571,13.57v16.86l13.571,13.57h16.858l13.571,-13.57v-16.86zM207.492,32.64l-8.694,-8.69l8.694,-8.7c3.286,-3.28 8.694,-3.28 11.98,0l8.694,8.7l-8.694,8.69c-3.286,3.29 -8.588,3.29 -11.98,0z" fill="#444CE7"/>
</g>
<g id="Logotype_9">
<path d="M254.928,34.24c2.7,0 4.92,-1.38 5.61,-3.45v3.21h3.99v-8.1c0,-1.83 -1.44,-3.39 -3.39,-3.39h-5.7v3.39h4.05c0.51,0 0.84,0.33 0.84,0.84c0,1.95 -2.58,3.84 -5.19,3.84c-3.48,0 -6.24,-2.73 -6.24,-7.08c0,-4.35 2.76,-6.87 6.33,-6.87c2.7,0 4.56,1.47 4.89,3.72h4.47c-0.27,-4.5 -4.05,-7.59 -9.33,-7.59c-5.55,0 -10.65,3.57 -10.65,10.74c0,7.17 4.95,10.74 10.32,10.74z" fill="#101828"/>
<path d="M266.241,34h4.17v-21.69h-4.17z" fill="#101828"/>
<path d="M279.406,34.24c4.65,0 7.98,-3.3 7.98,-7.8c0,-4.5 -3.33,-7.8 -7.98,-7.8c-4.65,0 -7.98,3.3 -7.98,7.8c0,4.5 3.33,7.8 7.98,7.8zM279.406,30.64c-2.25,0 -3.78,-1.71 -3.78,-4.2c0,-2.52 1.53,-4.23 3.78,-4.23c2.25,0 3.78,1.71 3.78,4.23c0,2.49 -1.53,4.2 -3.78,4.2z" fill="#101828"/>
<path d="M296.717,34.24c4.47,0 7.14,-3.09 7.14,-7.8c0,-4.71 -2.67,-7.8 -7.08,-7.8c-1.89,0 -3.36,0.72 -4.2,1.83v-8.16h-4.17v21.69h4.17v-1.65c0.84,1.17 2.4,1.89 4.14,1.89zM296.057,30.64c-2.25,0 -3.72,-1.68 -3.72,-4.2c0,-2.55 1.47,-4.23 3.72,-4.23c2.19,0 3.69,1.68 3.69,4.23c0,2.52 -1.5,4.2 -3.69,4.2z" fill="#101828"/>
<path d="M310.837,18.64c-4.14,0 -6.6,2.43 -6.78,5.46h3.72c0.06,-1.26 0.99,-2.4 2.82,-2.4c1.71,0 2.7,0.87 2.7,2.13c0,0.63 -0.39,1.11 -1.14,1.11h-2.55c-3.3,0 -5.52,1.8 -5.52,4.77c0,2.58 2.01,4.53 4.95,4.53c2.07,0 3.75,-0.93 4.26,-2.34v2.1h4.14v-9.72c0,-3.42 -2.79,-5.64 -6.6,-5.64zM310.087,31.21c-1.17,0 -2.01,-0.69 -2.01,-1.68c0,-1.17 0.9,-1.95 2.16,-1.95h3.06v0.21c0,1.92 -1.17,3.42 -3.21,3.42z" fill="#101828"/>
<path d="M319.04,34h4.17v-21.69h-4.17z" fill="#101828"/>
<path d="M325.425,34h8.58c4.44,0 7.5,-2.28 7.5,-6.27c0,-2.76 -1.62,-4.44 -3.54,-5.19c1.23,-0.66 2.46,-2.16 2.46,-4.14c0,-3.51 -2.85,-5.4 -6.66,-5.4h-8.34zM329.865,21.01v-4.44h3.48c2.01,0 2.91,0.81 2.91,2.22c0,1.41 -0.9,2.22 -2.82,2.22zM329.865,30.1v-5.28h3.75c2.49,0 3.6,0.96 3.6,2.67c0,1.71 -1.11,2.61 -3.6,2.61z" fill="#101828"/>
<path d="M348.759,18.64c-4.14,0 -6.6,2.43 -6.78,5.46h3.72c0.06,-1.26 0.99,-2.4 2.82,-2.4c1.71,0 2.7,0.87 2.7,2.13c0,0.63 -0.39,1.11 -1.14,1.11h-2.55c-3.3,0 -5.52,1.8 -5.52,4.77c0,2.58 2.01,4.53 4.95,4.53c2.07,0 3.75,-0.93 4.26,-2.34v2.1h4.14v-9.72c0,-3.42 -2.79,-5.64 -6.6,-5.64zM348.009,31.21c-1.17,0 -2.01,-0.69 -2.01,-1.68c0,-1.17 0.9,-1.95 2.16,-1.95h3.06v0.21c0,1.92 -1.17,3.42 -3.21,3.42z" fill="#101828"/>
<path d="M356.721,34h4.2v-8.28c0,-1.95 1.29,-3.36 3.12,-3.36c1.74,0 2.91,1.32 2.91,3.15v8.49h4.2v-9.42c0,-3.48 -2.22,-5.94 -5.64,-5.94c-2.07,0 -3.75,0.87 -4.59,2.34v-2.1h-4.2z" fill="#101828"/>
<path d="M383.122,34h5.04l-6.51,-9.18l6.03,-5.94h-5.28l-5.25,5.16v-11.73h-4.2v21.69h4.2v-4.74l1.68,-1.65z" fill="#101828"/>
</g>
</g>
<g id="Fictional company logo_10">
<g id="Logomark_10" clip-path="url(#clip31_146_153)">
<g id="Shape_20">
<path d="M450.857,4.12l-4.221,-1.13l-3.556,13.28l-3.212,-11.99l-4.221,1.13l3.47,12.95l-8.642,-8.64l-3.09,3.09l9.479,9.48l-11.804,-3.16l-1.131,4.22l12.898,3.45c-0.148,-0.63 -0.226,-1.3 -0.226,-1.98c0,-4.83 3.913,-8.74 8.739,-8.74c4.827,0 8.74,3.91 8.74,8.74c0,0.68 -0.077,1.34 -0.223,1.97l11.722,3.14l1.131,-4.22l-12.95,-3.47l11.806,-3.16l-1.131,-4.22l-12.949,3.47l8.642,-8.65l-3.09,-3.09l-9.348,9.35z" fill="#FF4405"/>
<path d="M453.845,26.84c-0.362,1.53 -1.126,2.9 -2.175,4.01l8.492,8.49l3.09,-3.09z" fill="#FF4405"/>
<path d="M451.585,30.93c-1.061,1.09 -2.402,1.9 -3.905,2.31l3.09,11.54l4.22,-1.14z" fill="#FF4405"/>
<path d="M447.522,33.28c-0.698,0.18 -1.429,0.28 -2.182,0.28c-0.808,0 -1.589,-0.11 -2.331,-0.31l-3.093,11.54l4.221,1.13z" fill="#FF4405"/>
<path d="M442.859,33.2c-1.48,-0.43 -2.797,-1.25 -3.836,-2.34l-8.513,8.51l3.09,3.09z" fill="#FF4405"/>
<path d="M438.953,30.78c-1.022,-1.09 -1.766,-2.45 -2.12,-3.95l-11.76,3.15l1.131,4.22z" fill="#FF4405"/>
</g>
</g>
<g id="Logotype_10">
<path d="M492.108,12.91v15.21l-9.75,-15.21h-3.9v21h3.9v-15.09l9.75,15.09h3.9v-21z" fill="#101828"/>
<path d="M497.765,16.84h4.02v-3.93h-4.02zM497.825,33.91v-15h3.9v15z" fill="#101828"/>
<path d="M518.505,26.41c0,-5.19 -3.69,-7.65 -7.59,-7.68c-3.93,-0.03 -7.56,2.49 -7.56,7.68c0,5.19 3.63,7.71 7.56,7.68c3.57,-0.03 6.03,-1.68 7.17,-4.41l-3.03,-1.26c-0.93,1.86 -2.4,2.52 -4.14,2.55c-1.5,0.03 -3.21,-0.69 -3.57,-3.36h11.07c0.06,-0.39 0.09,-0.78 0.09,-1.2zM510.915,21.82c1.5,0.03 3.03,0.84 3.51,3h-7.02c0.51,-2.19 2.04,-3.03 3.51,-3z" fill="#101828"/>
<path d="M527.518,21.7v-2.97h-2.46v-4.02l-3.9,1.2v2.82h-2.46v2.97h2.46v7.77c0,2.94 0.24,4.44 4.8,4.44h1.05v-3.42h-1.05c-0.72,0 -0.9,-0.12 -0.9,-1.02v-7.77z" fill="#101828"/>
<path d="M533.314,30.64l8.28,-8.46v-3.27h-12.42v3.27h8.04l-8.28,8.46v3.27h12.75v-3.27z" fill="#101828"/>
<path d="M543.082,29.68l3.93,-0.6c0.27,1.5 2.04,2.07 3.12,2.07c1.11,0 3.03,-0.24 3.03,-2.04c0,-3.51 -9.63,0.87 -9.63,-5.85c0,-4.32 5.01,-4.56 6.6,-4.56c1.5,0 5.85,0.24 6.75,3.72l-3.72,0.78c-0.33,-1.59 -2.01,-1.89 -2.91,-1.89c-0.9,0 -2.82,0.21 -2.82,1.95c0,3.48 9.63,-0.96 9.63,5.85c0,4.59 -5.28,4.98 -6.93,4.98c-1.5,0 -6.27,-0.39 -7.05,-4.41z" fill="#101828"/>
<path d="M562.128,26.41c0,3.66 1.95,4.77 3.99,4.74c1.83,-0.03 3.09,-0.78 3.84,-2.88l3.21,1.56c-1.17,3.06 -4.02,4.23 -7.05,4.26c-3.93,0.03 -7.89,-2.49 -7.89,-7.68c0,-5.19 3.96,-7.71 7.89,-7.68c3.03,0.03 5.88,1.2 7.05,4.26l-3.21,1.56c-0.75,-2.1 -2.01,-2.85 -3.84,-2.88c-2.04,-0.03 -3.99,1.08 -3.99,4.74z" fill="#101828"/>
<path d="M583.638,18.67c-2.01,0 -3.84,1.05 -5.01,3.3v-9.06h-3.9v21h3.9v-5.31c0,-6.87 2.85,-7.44 3.9,-7.44c1.68,0 1.92,1.74 1.92,4.29v8.46h3.9v-8.46c0,-3.18 -0.51,-6.78 -4.71,-6.78z" fill="#101828"/>
<path d="M604.814,26.41c0,-5.19 -3.69,-7.65 -7.59,-7.68c-3.93,-0.03 -7.56,2.49 -7.56,7.68c0,5.19 3.63,7.71 7.56,7.68c3.57,-0.03 6.03,-1.68 7.17,-4.41l-3.03,-1.26c-0.93,1.86 -2.4,2.52 -4.14,2.55c-1.5,0.03 -3.21,-0.69 -3.57,-3.36h11.07c0.06,-0.39 0.09,-0.78 0.09,-1.2zM597.224,21.82c1.5,0.03 3.03,0.84 3.51,3h-7.02c0.51,-2.19 2.04,-3.03 3.51,-3z" fill="#101828"/>
</g>
</g>
</g></svg>