<svg viewBox="0 0 605 48" x="0" y="0" fill="none" xmlns="http://www.w3.org/2000/svg"><g id="INNER" xmlns="http://www.w3.org/2000/svg">
<g id="Fictional company logo_6">
<g id="Logomark_6">
<path id="Shape_11" fill-rule="evenodd" clip-rule="evenodd" d="M22,46c12.1503,0 22,-9.85 22,-22c0,-12.15 -9.8497,-22 -22,-22c-12.1503,0 -22,9.85 -22,22c0,12.15 9.8497,22 22,22zM28.8632,12.25c0.3341,-1.19 -0.8175,-1.89 -1.8692,-1.14l-14.6816,10.46c-1.1406,0.81 -0.9612,2.43 0.2695,2.43h3.8661v-0.03h7.5348l-6.1395,2.17l-2.7065,9.61c-0.3341,1.19 0.8174,1.89 1.8692,1.14l14.6816,-10.46c1.1406,-0.81 0.9611,-2.43 -0.2695,-2.43h-5.8628z" fill="#155EEF"/>
</g>
<g id="Logotype_6">
<path d="M55.38,33.91v-3.48h2.76v-14.04h-2.76v-3.48h10.8c1.28,0 2.39,0.22 3.33,0.66c0.96,0.42 1.7,1.03 2.22,1.83c0.54,0.78 0.81,1.72 0.81,2.82v0.3c0,0.96 -0.18,1.75 -0.54,2.37c-0.36,0.6 -0.79,1.07 -1.29,1.41c-0.48,0.32 -0.94,0.55 -1.38,0.69v0.54c0.44,0.12 0.92,0.35 1.44,0.69c0.52,0.32 0.96,0.79 1.32,1.41c0.38,0.62 0.57,1.43 0.57,2.43v0.3c0,1.16 -0.27,2.16 -0.81,3c-0.54,0.82 -1.29,1.45 -2.25,1.89c-0.94,0.44 -2.04,0.66 -3.3,0.66zM62.1,30.31h3.72c0.86,0 1.55,-0.21 2.07,-0.63c0.54,-0.42 0.81,-1.02 0.81,-1.8v-0.3c0,-0.78 -0.26,-1.38 -0.78,-1.8c-0.52,-0.42 -1.22,-0.63 -2.1,-0.63h-3.72zM62.1,21.55h3.66c0.82,0 1.49,-0.21 2.01,-0.63c0.54,-0.42 0.81,-1 0.81,-1.74v-0.3c0,-0.76 -0.26,-1.34 -0.78,-1.74c-0.52,-0.42 -1.2,-0.63 -2.04,-0.63h-3.66z" fill="#101828"/>
<path d="M81.602,34.33c-1.48,0 -2.81,-0.3 -3.99,-0.9c-1.18,-0.6 -2.11,-1.47 -2.79,-2.61c-0.68,-1.14 -1.02,-2.51 -1.02,-4.11v-0.48c0,-1.6 0.34,-2.97 1.02,-4.11c0.68,-1.14 1.61,-2.01 2.79,-2.61c1.18,-0.6 2.51,-0.9 3.99,-0.9c1.48,0 2.81,0.3 3.99,0.9c1.18,0.6 2.11,1.47 2.79,2.61c0.68,1.14 1.02,2.51 1.02,4.11v0.48c0,1.6 -0.34,2.97 -1.02,4.11c-0.68,1.14 -1.61,2.01 -2.79,2.61c-1.18,0.6 -2.51,0.9 -3.99,0.9zM81.602,30.97c1.16,0 2.12,-0.37 2.88,-1.11c0.76,-0.76 1.14,-1.84 1.14,-3.24v-0.3c0,-1.4 -0.38,-2.47 -1.14,-3.21c-0.74,-0.76 -1.7,-1.14 -2.88,-1.14c-1.16,0 -2.12,0.38 -2.88,1.14c-0.76,0.74 -1.14,1.81 -1.14,3.21v0.3c0,1.4 0.38,2.48 1.14,3.24c0.76,0.74 1.72,1.11 2.88,1.11z" fill="#101828"/>
<path d="M91.391,33.91v-21h3.78v21z" fill="#101828"/>
<path d="M103.56,33.91c-0.98,0 -1.78,-0.3 -2.4,-0.9c-0.6,-0.62 -0.9,-1.44 -0.9,-2.46v-8.4h-3.72v-3.12h3.72v-4.62h3.78v4.62h4.08v3.12h-4.08v7.74c0,0.6 0.28,0.9 0.84,0.9h2.88v3.12z" fill="#101828"/>
<path d="M116.221,34.33c-1.94,0 -3.53,-0.42 -4.77,-1.26c-1.24,-0.84 -1.99,-2.04 -2.25,-3.6l3.48,-0.9c0.14,0.7 0.37,1.25 0.69,1.65c0.34,0.4 0.75,0.69 1.23,0.87c0.5,0.16 1.04,0.24 1.62,0.24c0.88,0 1.53,-0.15 1.95,-0.45c0.42,-0.32 0.63,-0.71 0.63,-1.17c0,-0.46 -0.2,-0.81 -0.6,-1.05c-0.4,-0.26 -1.04,-0.47 -1.92,-0.63l-0.84,-0.15c-1.04,-0.2 -1.99,-0.47 -2.85,-0.81c-0.86,-0.36 -1.55,-0.85 -2.07,-1.47c-0.52,-0.62 -0.78,-1.42 -0.78,-2.4c0,-1.48 0.54,-2.61 1.62,-3.39c1.08,-0.8 2.5,-1.2 4.26,-1.2c1.66,0 3.04,0.37 4.14,1.11c1.1,0.74 1.82,1.71 2.16,2.91l-3.51,1.08c-0.16,-0.76 -0.49,-1.3 -0.99,-1.62c-0.48,-0.32 -1.08,-0.48 -1.8,-0.48c-0.72,0 -1.27,0.13 -1.65,0.39c-0.38,0.24 -0.57,0.58 -0.57,1.02c0,0.48 0.2,0.84 0.6,1.08c0.4,0.22 0.94,0.39 1.62,0.51l0.84,0.15c1.12,0.2 2.13,0.47 3.03,0.81c0.92,0.32 1.64,0.79 2.16,1.41c0.54,0.6 0.81,1.42 0.81,2.46c0,1.56 -0.57,2.77 -1.71,3.63c-1.12,0.84 -2.63,1.26 -4.53,1.26z" fill="#101828"/>
<path d="M124.274,33.91v-21h3.78v7.95h0.54c0.16,-0.32 0.41,-0.64 0.75,-0.96c0.34,-0.32 0.79,-0.58 1.35,-0.78c0.58,-0.22 1.31,-0.33 2.19,-0.33c1.16,0 2.17,0.27 3.03,0.81c0.88,0.52 1.56,1.25 2.04,2.19c0.48,0.92 0.72,2 0.72,3.24v8.88h-3.78v-8.58c0,-1.12 -0.28,-1.96 -0.84,-2.52c-0.54,-0.56 -1.32,-0.84 -2.34,-0.84c-1.16,0 -2.06,0.39 -2.7,1.17c-0.64,0.76 -0.96,1.83 -0.96,3.21v7.56z" fill="#101828"/>
<path d="M141.26,33.91v-14.88h3.78v14.88zM143.15,17.29c-0.68,0 -1.26,-0.22 -1.74,-0.66c-0.46,-0.44 -0.69,-1.02 -0.69,-1.74c0,-0.72 0.23,-1.3 0.69,-1.74c0.48,-0.44 1.06,-0.66 1.74,-0.66c0.7,0 1.28,0.22 1.74,0.66c0.46,0.44 0.69,1.02 0.69,1.74c0,0.72 -0.23,1.3 -0.69,1.74c-0.46,0.44 -1.04,0.66 -1.74,0.66z" fill="#101828"/>
<path d="M150.189,33.91v-11.76h-3.78v-3.12h3.78v-2.76c0,-1.02 0.3,-1.83 0.9,-2.43c0.62,-0.62 1.42,-0.93 2.4,-0.93h3.9v3.12h-2.58c-0.56,0 -0.84,0.3 -0.84,0.9v2.1h3.9v3.12h-3.9v11.76z" fill="#101828"/>
<path d="M164.702,33.91c-0.98,0 -1.78,-0.3 -2.4,-0.9c-0.6,-0.62 -0.9,-1.44 -0.9,-2.46v-8.4h-3.72v-3.12h3.72v-4.62h3.78v4.62h4.08v3.12h-4.08v7.74c0,0.6 0.28,0.9 0.84,0.9h2.88v3.12z" fill="#101828"/>
</g>
</g>
<g id="Fictional company logo_7">
<g id="Logomark_7">
<path id="Shape_12" fill-rule="evenodd" clip-rule="evenodd" d="M224.765,3.45c-0.505,-0.1 -1.025,-0.1 -1.53,0c-0.584,0.12 -1.106,0.41 -1.521,0.64l-0.113,0.07l-14.059,7.81c-0.039,0.02 -0.079,0.04 -0.12,0.06c-0.44,0.25 -0.992,0.55 -1.416,1.01c-0.366,0.4 -0.644,0.87 -0.813,1.38c-0.197,0.6 -0.194,1.23 -0.193,1.73c0.001,0.05 0.001,0.09 0.001,0.14v15.42c0,0.04 0,0.09 -0.001,0.13c-0.001,0.51 -0.004,1.14 0.193,1.73c0.169,0.51 0.447,0.99 0.813,1.38c0.424,0.46 0.976,0.77 1.416,1.01c0.041,0.02 0.081,0.04 0.12,0.07l14.059,7.81l0.113,0.06c0.415,0.23 0.937,0.52 1.521,0.64c0.505,0.11 1.025,0.11 1.53,0c0.584,-0.12 1.106,-0.41 1.521,-0.64l0.113,-0.06l14.059,-7.81c0.018,-0.01 0.035,-0.02 0.053,-0.03c0.022,-0.02 0.045,-0.03 0.067,-0.04c0.44,-0.24 0.992,-0.55 1.416,-1.01c0.366,-0.39 0.644,-0.87 0.813,-1.38c0.197,-0.59 0.194,-1.22 0.193,-1.73c-0.001,-0.04 -0.001,-0.09 -0.001,-0.13v-15.42c0,-0.05 0,-0.09 0.001,-0.14c0.001,-0.5 0.004,-1.13 -0.193,-1.73c-0.169,-0.51 -0.447,-0.98 -0.813,-1.38c-0.424,-0.46 -0.976,-0.76 -1.416,-1.01h-0.001c-0.041,-0.02 -0.08,-0.04 -0.119,-0.06l-14.059,-7.81l-0.113,-0.07c-0.415,-0.23 -0.937,-0.52 -1.521,-0.64zM223.446,7.48c0.288,-0.16 0.435,-0.24 0.545,-0.3h0.009h0.009c0.11,0.06 0.257,0.14 0.545,0.3l12.633,7.02l-13.187,7.32l-13.187,-7.32zM208.801,17.73l13.299,7.38v14.66l-12.713,-7.07c-0.304,-0.16 -0.459,-0.25 -0.568,-0.32l-0.009,-0.01l-0.001,-0.01c-0.008,-0.13 -0.008,-0.3 -0.008,-0.65z" fill="#101828"/>
</g>
<g id="Logotype_7">
<path d="M260.291,30.34h6.048v3.57h-10.665v-18.96h4.617z" fill="#101828"/>
<path d="M270.593,17.28c-0.81,0 -1.476,-0.24 -1.998,-0.71c-0.504,-0.48 -0.756,-1.08 -0.756,-1.78c0,-0.72 0.252,-1.31 0.756,-1.78c0.522,-0.49 1.188,-0.73 1.998,-0.73c0.792,0 1.44,0.24 1.944,0.73c0.522,0.47 0.783,1.06 0.783,1.78c0,0.7 -0.261,1.3 -0.783,1.78c-0.504,0.47 -1.152,0.71 -1.944,0.71zM272.888,18.84v15.07h-4.617v-15.07z" fill="#101828"/>
<path d="M281.688,18.63c1.062,0 1.989,0.21 2.781,0.64c0.81,0.44 1.431,1 1.863,1.71v-2.14h4.617v15.04c0,1.39 -0.279,2.64 -0.837,3.75c-0.54,1.14 -1.377,2.04 -2.511,2.7c-1.116,0.67 -2.511,1 -4.185,1c-2.232,0 -4.041,-0.53 -5.427,-1.59c-1.386,-1.04 -2.178,-2.47 -2.376,-4.27h4.563c0.144,0.58 0.486,1.03 1.026,1.35c0.54,0.35 1.206,0.52 1.998,0.52c0.954,0 1.71,-0.28 2.268,-0.84c0.576,-0.54 0.864,-1.41 0.864,-2.62v-2.13c-0.45,0.7 -1.071,1.28 -1.863,1.73c-0.792,0.43 -1.719,0.64 -2.781,0.64c-1.242,0 -2.367,-0.31 -3.375,-0.94c-1.008,-0.65 -1.809,-1.56 -2.403,-2.73c-0.576,-1.19 -0.864,-2.55 -0.864,-4.1c0,-1.55 0.288,-2.91 0.864,-4.08c0.594,-1.17 1.395,-2.07 2.403,-2.7c1.008,-0.63 2.133,-0.94 3.375,-0.94zM286.332,26.38c0,-1.16 -0.324,-2.07 -0.972,-2.73c-0.63,-0.67 -1.404,-1 -2.322,-1c-0.918,0 -1.701,0.33 -2.349,1c-0.63,0.65 -0.945,1.55 -0.945,2.7c0,1.15 0.315,2.07 0.945,2.75c0.648,0.67 1.431,1 2.349,1c0.918,0 1.692,-0.33 2.322,-1c0.648,-0.66 0.972,-1.57 0.972,-2.72z" fill="#101828"/>
<path d="M303.28,18.68c1.728,0 3.114,0.58 4.158,1.73c1.044,1.13 1.566,2.7 1.566,4.7v8.8h-4.59v-8.18c0,-1.01 -0.261,-1.79 -0.783,-2.35c-0.522,-0.56 -1.224,-0.84 -2.106,-0.84c-0.882,0 -1.584,0.28 -2.106,0.84c-0.522,0.56 -0.783,1.34 -0.783,2.35v8.18h-4.617v-19.98h4.617v6.94c0.468,-0.67 1.107,-1.2 1.917,-1.6c0.81,-0.39 1.719,-0.59 2.727,-0.59z" fill="#101828"/>
<path d="M320.34,29.99v3.92h-2.349c-1.674,0 -2.979,-0.41 -3.915,-1.22c-0.936,-0.82 -1.404,-2.17 -1.404,-4.02v-5.99h-1.836v-3.84h1.836v-3.67h4.617v3.67h3.024v3.84h-3.024v6.04c0,0.45 0.108,0.78 0.324,0.98c0.216,0.19 0.576,0.29 1.08,0.29z" fill="#101828"/>
<path d="M327.258,20.98c0.432,-0.71 1.053,-1.27 1.863,-1.71c0.81,-0.43 1.737,-0.64 2.781,-0.64c1.242,0 2.367,0.31 3.375,0.94c1.008,0.63 1.8,1.53 2.376,2.7c0.594,1.17 0.891,2.53 0.891,4.08c0,1.55 -0.297,2.91 -0.891,4.1c-0.576,1.17 -1.368,2.08 -2.376,2.73c-1.008,0.63 -2.133,0.94 -3.375,0.94c-1.062,0 -1.989,-0.2 -2.781,-0.62c-0.792,-0.43 -1.413,-1 -1.863,-1.7v2.11h-4.617v-19.98h4.617zM333.846,26.35c0,-1.15 -0.324,-2.05 -0.972,-2.7c-0.63,-0.67 -1.413,-1 -2.349,-1c-0.918,0 -1.701,0.33 -2.349,1c-0.63,0.66 -0.945,1.57 -0.945,2.73c0,1.15 0.315,2.06 0.945,2.72c0.648,0.67 1.431,1 2.349,1c0.918,0 1.701,-0.33 2.349,-1c0.648,-0.68 0.972,-1.6 0.972,-2.75z" fill="#101828"/>
<path d="M347.555,34.12c-1.476,0 -2.808,-0.31 -3.996,-0.94c-1.17,-0.63 -2.097,-1.53 -2.781,-2.7c-0.666,-1.17 -0.999,-2.54 -0.999,-4.1c0,-1.55 0.342,-2.91 1.026,-4.08c0.684,-1.19 1.62,-2.1 2.808,-2.73c1.188,-0.63 2.52,-0.94 3.996,-0.94c1.476,0 2.808,0.31 3.996,0.94c1.188,0.63 2.124,1.54 2.808,2.73c0.684,1.17 1.026,2.53 1.026,4.08c0,1.54 -0.351,2.91 -1.053,4.1c-0.684,1.17 -1.629,2.07 -2.835,2.7c-1.188,0.63 -2.52,0.94 -3.996,0.94zM347.555,30.13c0.882,0 1.629,-0.33 2.241,-0.97c0.63,-0.65 0.945,-1.58 0.945,-2.78c0,-1.21 -0.306,-2.14 -0.918,-2.79c-0.594,-0.64 -1.332,-0.97 -2.214,-0.97c-0.9,0 -1.647,0.33 -2.241,0.97c-0.594,0.63 -0.891,1.56 -0.891,2.79c0,1.2 0.288,2.13 0.864,2.78c0.594,0.64 1.332,0.97 2.214,0.97z" fill="#101828"/>
<path d="M366.528,33.91l-2.889,-4.19l-2.43,4.19h-4.995l4.968,-7.7l-5.103,-7.37h5.184l2.889,4.16l2.43,-4.16h4.995l-5.049,7.59l5.184,7.48z" fill="#101828"/>
</g>
</g>
<g id="Fictional company logo_8">
<g id="Logomark_8">
<path id="Shape_13" d="M443.307,11.16c-0.433,-0.43 -0.865,-0.86 -1.297,-1.29c-1.297,-1.39 -2.68,-2.77 -4.409,-3.63c-1.988,-1.04 -4.149,-0.78 -6.31,-0.78c-3.285,0 -11.497,0 -16.338,0l3.285,4.41c5.964,0 15.3,0 19.623,0c1.815,0 3.371,0.34 4.84,1.29c0.26,0.09 0.519,0.09 0.606,0z" fill="#66C61C"/>
<path id="Shape_14" d="M446.937,18.25c-0.432,-0.43 -0.864,-0.86 -1.296,-1.3c-1.297,-1.38 -2.68,-2.76 -4.409,-3.63c-1.988,-1.03 -4.149,-0.78 -6.311,-0.78c-2.852,0 -9.681,0 -14.522,0l3.285,4.41c5.878,0 13.917,0 17.894,0c1.815,0 3.371,0.35 4.841,1.3c0.172,0.09 0.345,0.09 0.518,0z" fill="#4CA30D"/>
<path id="Shape_15" d="M451,25.17c-0.432,-0.43 -0.864,-0.87 -1.297,-1.3c-1.296,-1.38 -2.679,-2.77 -4.408,-3.63c-1.988,-1.04 -4.15,-0.78 -6.311,-0.78c-2.679,0 -8.558,0 -13.312,0l3.285,4.41c5.705,0 12.966,0 16.597,0c1.815,0 3.371,0.35 4.841,1.3c0.259,0.08 0.432,0.17 0.605,0z" fill="#3B7C0F"/>
<path id="Shape_16" d="M414.607,36.84c0.432,0.43 0.865,0.86 1.297,1.29c1.296,1.39 2.68,2.77 4.408,3.64c1.989,1.03 4.15,0.77 6.311,0.77h16.338l-3.285,-4.41c-5.965,0 -15.301,0 -19.623,0c-1.815,0 -3.371,-0.34 -4.841,-1.29c-0.259,-0.09 -0.432,-0.09 -0.605,0z" fill="#66C61C"/>
<path id="Shape_17" d="M410.976,29.75c0.433,0.43 0.865,0.86 1.297,1.3c1.297,1.38 2.68,2.76 4.409,3.63c1.988,1.03 4.149,0.77 6.31,0.77h14.523l-3.285,-4.4c-5.878,0 -13.918,0 -17.894,0c-1.815,0 -3.371,-0.35 -4.841,-1.3c-0.173,-0.09 -0.346,-0.09 -0.519,0z" fill="#4CA30D"/>
<path id="Shape_18" d="M407,22.74c0.432,0.44 0.864,0.87 1.297,1.3c1.296,1.38 2.679,2.77 4.408,3.63c1.989,1.04 4.15,0.78 6.311,0.78h13.312l-3.285,-4.41c-5.705,0 -12.966,0 -16.597,0c-1.815,0 -3.371,-0.34 -4.841,-1.3c-0.259,-0.08 -0.432,-0.08 -0.605,0z" fill="#3B7C0F"/>
</g>
<g id="Logotype_8">
<path d="M460.932,14.01v19.99h4.396v-8.26h8.372v-3.42h-8.372v-4.62h9.66v-3.69z" fill="#101828"/>
<path d="M486.014,25.21h-6.468c0.018,-0.28 0.074,-0.6 0.168,-0.95c0.112,-0.36 0.289,-0.69 0.532,-1.01c0.261,-0.32 0.597,-0.58 1.008,-0.79c0.429,-0.22 0.961,-0.33 1.596,-0.33c0.97,0 1.689,0.26 2.156,0.78c0.485,0.52 0.821,1.29 1.008,2.3zM479.546,27.73h10.444c0.074,-1.12 -0.019,-2.2 -0.28,-3.22c-0.262,-1.03 -0.691,-1.94 -1.288,-2.75c-0.579,-0.8 -1.326,-1.43 -2.24,-1.9c-0.915,-0.49 -1.988,-0.73 -3.22,-0.73c-1.102,0 -2.11,0.2 -3.024,0.59c-0.896,0.39 -1.671,0.93 -2.324,1.62c-0.654,0.68 -1.158,1.48 -1.512,2.41c-0.355,0.94 -0.532,1.94 -0.532,3.03c0,1.12 0.168,2.14 0.504,3.08c0.354,0.93 0.849,1.73 1.484,2.4c0.634,0.68 1.409,1.2 2.324,1.57c0.914,0.36 1.941,0.53 3.08,0.53c1.642,0 3.042,-0.37 4.2,-1.12c1.157,-0.74 2.016,-1.98 2.576,-3.72h-3.5c-0.131,0.45 -0.486,0.88 -1.064,1.29c-0.579,0.39 -1.27,0.59 -2.072,0.59c-1.12,0 -1.979,-0.29 -2.576,-0.87c-0.598,-0.58 -0.924,-1.51 -0.98,-2.8z" fill="#101828"/>
<path d="M491.34,23.98c0.056,-0.94 0.289,-1.71 0.7,-2.33c0.41,-0.61 0.933,-1.11 1.568,-1.48c0.634,-0.38 1.344,-0.64 2.128,-0.79c0.802,-0.16 1.605,-0.25 2.408,-0.25c0.728,0 1.465,0.06 2.212,0.17c0.746,0.09 1.428,0.29 2.044,0.59c0.616,0.3 1.12,0.72 1.512,1.26c0.392,0.52 0.588,1.22 0.588,2.1v7.53c0,0.65 0.037,1.28 0.112,1.88c0.074,0.59 0.205,1.04 0.392,1.34h-4.032c-0.075,-0.22 -0.14,-0.45 -0.196,-0.67c-0.038,-0.24 -0.066,-0.49 -0.084,-0.73c-0.635,0.65 -1.382,1.11 -2.24,1.37c-0.859,0.26 -1.736,0.39 -2.632,0.39c-0.691,0 -1.335,-0.08 -1.932,-0.25c-0.598,-0.17 -1.12,-0.43 -1.568,-0.78c-0.448,-0.36 -0.803,-0.8 -1.064,-1.35c-0.243,-0.54 -0.364,-1.18 -0.364,-1.93c0,-0.82 0.14,-1.49 0.42,-2.01c0.298,-0.55 0.672,-0.97 1.12,-1.29c0.466,-0.32 0.989,-0.55 1.568,-0.7c0.597,-0.17 1.194,-0.3 1.792,-0.39c0.597,-0.1 1.185,-0.17 1.764,-0.23c0.578,-0.05 1.092,-0.14 1.54,-0.25c0.448,-0.11 0.802,-0.27 1.064,-0.48c0.261,-0.22 0.382,-0.54 0.364,-0.95c0,-0.43 -0.075,-0.76 -0.224,-1.01c-0.131,-0.26 -0.318,-0.45 -0.56,-0.58c-0.224,-0.15 -0.495,-0.25 -0.812,-0.28c-0.299,-0.06 -0.626,-0.09 -0.98,-0.09c-0.784,0 -1.4,0.17 -1.848,0.51c-0.448,0.33 -0.71,0.89 -0.784,1.68zM500.524,26.92c-0.168,0.15 -0.383,0.27 -0.644,0.36c-0.243,0.07 -0.514,0.14 -0.812,0.2c-0.28,0.05 -0.579,0.1 -0.896,0.14c-0.318,0.03 -0.635,0.08 -0.952,0.14c-0.299,0.05 -0.598,0.13 -0.896,0.22c-0.28,0.09 -0.532,0.22 -0.756,0.39c-0.206,0.15 -0.374,0.35 -0.504,0.59c-0.131,0.24 -0.196,0.55 -0.196,0.92c0,0.36 0.065,0.66 0.196,0.9c0.13,0.24 0.308,0.44 0.532,0.59c0.224,0.13 0.485,0.22 0.784,0.28c0.298,0.05 0.606,0.08 0.924,0.08c0.784,0 1.39,-0.13 1.82,-0.39c0.429,-0.26 0.746,-0.57 0.952,-0.92c0.205,-0.38 0.326,-0.75 0.364,-1.12c0.056,-0.38 0.084,-0.68 0.084,-0.9z" fill="#101828"/>
<path d="M511.786,19.52v-4.34h-3.976v4.34h-2.408v2.66h2.408v8.54c0,0.73 0.121,1.32 0.364,1.77c0.243,0.45 0.569,0.79 0.98,1.03c0.429,0.25 0.915,0.41 1.456,0.48c0.56,0.09 1.148,0.14 1.764,0.14c0.392,0 0.793,-0.01 1.204,-0.03c0.411,-0.02 0.784,-0.05 1.12,-0.11v-3.08c-0.187,0.04 -0.383,0.07 -0.588,0.08c-0.205,0.02 -0.42,0.03 -0.644,0.03c-0.672,0 -1.12,-0.11 -1.344,-0.33c-0.224,-0.23 -0.336,-0.68 -0.336,-1.35v-7.17h2.912v-2.66z" fill="#101828"/>
<path d="M515.75,14.01v19.99h3.976v-7.59c0,-1.47 0.242,-2.53 0.728,-3.16c0.485,-0.66 1.269,-0.98 2.352,-0.98c0.952,0 1.614,0.3 1.988,0.89c0.373,0.58 0.56,1.47 0.56,2.66v8.18h3.976v-8.9c0,-0.9 -0.084,-1.71 -0.252,-2.44c-0.15,-0.75 -0.42,-1.37 -0.812,-1.88c-0.392,-0.52 -0.934,-0.92 -1.624,-1.2c-0.672,-0.3 -1.54,-0.45 -2.604,-0.45c-0.747,0 -1.512,0.2 -2.296,0.59c-0.784,0.37 -1.428,0.98 -1.932,1.82h-0.084v-7.53z" fill="#101828"/>
<path d="M541.251,25.21h-6.468c0.019,-0.28 0.075,-0.6 0.168,-0.95c0.112,-0.36 0.29,-0.69 0.532,-1.01c0.262,-0.32 0.598,-0.58 1.008,-0.79c0.43,-0.22 0.962,-0.33 1.596,-0.33c0.971,0 1.69,0.26 2.156,0.78c0.486,0.52 0.822,1.29 1.008,2.3zM534.783,27.73h10.444c0.075,-1.12 -0.018,-2.2 -0.28,-3.22c-0.261,-1.03 -0.69,-1.94 -1.288,-2.75c-0.578,-0.8 -1.325,-1.43 -2.24,-1.9c-0.914,-0.49 -1.988,-0.73 -3.22,-0.73c-1.101,0 -2.109,0.2 -3.024,0.59c-0.896,0.39 -1.67,0.93 -2.324,1.62c-0.653,0.68 -1.157,1.48 -1.512,2.41c-0.354,0.94 -0.532,1.94 -0.532,3.03c0,1.12 0.168,2.14 0.504,3.08c0.355,0.93 0.85,1.73 1.484,2.4c0.635,0.68 1.41,1.2 2.324,1.57c0.915,0.36 1.942,0.53 3.08,0.53c1.643,0 3.043,-0.37 4.2,-1.12c1.158,-0.74 2.016,-1.98 2.576,-3.72h-3.5c-0.13,0.45 -0.485,0.88 -1.064,1.29c-0.578,0.39 -1.269,0.59 -2.072,0.59c-1.12,0 -1.978,-0.29 -2.576,-0.87c-0.597,-0.58 -0.924,-1.51 -0.98,-2.8z" fill="#101828"/>
<path d="M546.745,19.52v14.48h3.976v-6.52c0,-0.66 0.066,-1.26 0.196,-1.82c0.131,-0.56 0.346,-1.05 0.644,-1.46c0.318,-0.43 0.728,-0.77 1.232,-1.01c0.504,-0.24 1.12,-0.36 1.848,-0.36c0.243,0 0.495,0.02 0.756,0.05c0.262,0.02 0.486,0.05 0.672,0.09v-3.7c-0.317,-0.09 -0.606,-0.14 -0.868,-0.14c-0.504,0 -0.989,0.08 -1.456,0.23c-0.466,0.15 -0.905,0.36 -1.316,0.64c-0.41,0.26 -0.774,0.59 -1.092,0.98c-0.317,0.37 -0.569,0.78 -0.756,1.23h-0.056v-2.69z" fill="#101828"/>
<path d="M561.604,30.3v-12.6h3.136c1.083,0 1.988,0.16 2.716,0.48c0.747,0.3 1.344,0.74 1.792,1.32c0.448,0.57 0.766,1.27 0.952,2.1c0.206,0.8 0.308,1.7 0.308,2.71c0,1.1 -0.14,2.04 -0.42,2.8c-0.28,0.77 -0.653,1.39 -1.12,1.88c-0.466,0.46 -0.998,0.8 -1.596,1.01c-0.597,0.2 -1.213,0.3 -1.848,0.3zM557.208,14.01v19.99h8.624c1.531,0 2.856,-0.25 3.976,-0.76c1.139,-0.52 2.082,-1.23 2.828,-2.12c0.766,-0.9 1.335,-1.96 1.708,-3.2c0.374,-1.23 0.56,-2.57 0.56,-4.03c0,-1.66 -0.233,-3.11 -0.7,-4.34c-0.448,-1.23 -1.082,-2.26 -1.904,-3.08c-0.802,-0.82 -1.764,-1.44 -2.884,-1.85c-1.101,-0.41 -2.296,-0.61 -3.584,-0.61z" fill="#101828"/>
<path d="M586.446,25.21h-6.468c0.019,-0.28 0.075,-0.6 0.168,-0.95c0.112,-0.36 0.289,-0.69 0.532,-1.01c0.261,-0.32 0.597,-0.58 1.008,-0.79c0.43,-0.22 0.961,-0.33 1.596,-0.33c0.971,0 1.689,0.26 2.156,0.78c0.486,0.52 0.821,1.29 1.008,2.3zM579.978,27.73h10.444c0.075,-1.12 -0.019,-2.2 -0.28,-3.22c-0.261,-1.03 -0.691,-1.94 -1.288,-2.75c-0.579,-0.8 -1.325,-1.43 -2.24,-1.9c-0.914,-0.49 -1.988,-0.73 -3.22,-0.73c-1.101,0 -2.109,0.2 -3.024,0.59c-0.896,0.39 -1.67,0.93 -2.324,1.62c-0.653,0.68 -1.157,1.48 -1.512,2.41c-0.355,0.94 -0.532,1.94 -0.532,3.03c0,1.12 0.168,2.14 0.504,3.08c0.355,0.93 0.849,1.73 1.484,2.4c0.635,0.68 1.409,1.2 2.324,1.57c0.915,0.36 1.942,0.53 3.08,0.53c1.643,0 3.043,-0.37 4.2,-1.12c1.158,-0.74 2.016,-1.98 2.576,-3.72h-3.5c-0.131,0.45 -0.485,0.88 -1.064,1.29c-0.579,0.39 -1.269,0.59 -2.072,0.59c-1.12,0 -1.979,-0.29 -2.576,-0.87c-0.597,-0.58 -0.924,-1.51 -0.98,-2.8z" fill="#101828"/>
<path d="M599.948,34l4.9,-14.48h-3.948l-3.052,9.89h-0.056l-3.052,-9.89h-4.172l4.956,14.48z" fill="#101828"/>
</g>
</g>
</g></svg>